{
    "accessors": [
        {
            "bufferView": 0,
            "componentType": 5126,
            "count": 288,
            "max": [
                0.026499999687075615,
                0.026499999687075615,
                0.004999999888241291
            ],
            "min": [
                -0.026499999687075615,
                -0.026499999687075615,
                0.004999999888241291
            ],
            "name": "mesh1045_coord_accessor",
            "type": "VEC3"
        },
        {
            "bufferView": 1,
            "componentType": 5126,
            "count": 288,
            "max": [
                0.0,
                0.0,
                1.0
            ],
            "min": [
                0.0,
                0.0,
                1.0
            ],
            "name": "mesh1045_norm_accessor",
            "type": "VEC3"
        },
        {
            "bufferView": 2,
            "componentType": 5125,
            "count": 864,
            "max": [
                287
            ],
            "min": [
                0
            ],
            "name": "mesh1045_idx_accessor",
            "type": "SCALAR"
        },
        {
            "bufferView": 3,
            "componentType": 5126,
            "count": 288,
            "max": [
                0.01899999938905239,
                0.01899999938905239,
                0.004999999888241291
            ],
            "min": [
                -0.01899999938905239,
                -0.01899999938905239,
                0.0
            ],
            "name": "mesh1046_coord_accessor",
            "type": "VEC3"
        },
        {
            "bufferView": 4,
            "componentType": 5126,
            "count": 288,
            "max": [
                1.0,
                1.0,
                -0.0
            ],
            "min": [
                -1.0,
                -1.0,
                -0.0
            ],
            "name": "mesh1046_norm_accessor",
            "type": "VEC3"
        },
        {
            "bufferView": 5,
            "componentType": 5125,
            "count": 864,
            "max": [
                287
            ],
            "min": [
                0
            ],
            "name": "mesh1046_idx_accessor",
            "type": "SCALAR"
        },
        {
            "bufferView": 6,
            "componentType": 5126,
            "count": 288,
            "max": [
                0.026499999687075615,
                0.026499999687075615,
                0.009999999776482582
            ],
            "min": [
                -0.026499999687075615,
                -0.026499999687075615,
                0.004999999888241291
            ],
            "name": "mesh1047_coord_accessor",
            "type": "VEC3"
        },
        {
            "bufferView": 7,
            "componentType": 5126,
            "count": 288,
            "max": [
                1.0,
                1.0,
                -0.0
            ],
            "min": [
                -1.0,
                -1.0,
                -0.0
            ],
            "name": "mesh1047_norm_accessor",
            "type": "VEC3"
        },
        {
            "bufferView": 8,
            "componentType": 5125,
            "count": 864,
            "max": [
                287
            ],
            "min": [
                0
            ],
            "name": "mesh1047_idx_accessor",
            "type": "SCALAR"
        },
        {
            "bufferView": 9,
            "componentType": 5126,
            "count": 288,
            "max": [
                0.02850000001490116,
                0.02850000001490116,
                0.009999999776482582
            ],
            "min": [
                -0.02850000001490116,
                -0.02850000001490116,
                0.009999999776482582
            ],
            "name": "mesh1048_coord_accessor",
            "type": "VEC3"
        },
        {
            "bufferView": 10,
            "componentType": 5126,
            "count": 288,
            "max": [
                0.0,
                0.0,
                1.0
            ],
            "min": [
                0.0,
                0.0,
                1.0
            ],
            "name": "mesh1048_norm_accessor",
            "type": "VEC3"
        },
        {
            "bufferView": 11,
            "componentType": 5125,
            "count": 864,
            "max": [
                287
            ],
            "min": [
                0
            ],
            "name": "mesh1048_idx_accessor",
            "type": "SCALAR"
        },
        {
            "bufferView": 12,
            "componentType": 5126,
            "count": 320,
            "max": [
                0.02850000001490116,
                0.02850000001490116,
                0.009999999776482582
            ],
            "min": [
                -0.02850000001490116,
                -0.02850000001490116,
                0.004800000227987766
            ],
            "name": "mesh1049_coord_accessor",
            "type": "VEC3"
        },
        {
            "bufferView": 13,
            "componentType": 5126,
            "count": 320,
            "max": [
                1.0,
                1.0,
                0.0
            ],
            "min": [
                -1.0,
                -1.0,
                0.0
            ],
            "name": "mesh1049_norm_accessor",
            "type": "VEC3"
        },
        {
            "bufferView": 14,
            "componentType": 5125,
            "count": 960,
            "max": [
                319
            ],
            "min": [
                0
            ],
            "name": "mesh1049_idx_accessor",
            "type": "SCALAR"
        },
        {
            "bufferView": 15,
            "componentType": 5126,
            "count": 214,
            "max": [
                -0.0033704598899930716,
                -0.0033704598899930716,
                0.004999999888241291
            ],
            "min": [
                -0.028300000354647636,
                -0.028300000354647636,
                0.004999999888241291
            ],
            "name": "mesh1050_coord_accessor",
            "type": "VEC3"
        },
        {
            "bufferView": 16,
            "componentType": 5126,
            "count": 214,
            "max": [
                0.0,
                0.0,
                1.0
            ],
            "min": [
                0.0,
                0.0,
                1.0
            ],
            "name": "mesh1050_norm_accessor",
            "type": "VEC3"
        },
        {
            "bufferView": 17,
            "componentType": 5125,
            "count": 642,
            "max": [
                213
            ],
            "min": [
                0
            ],
            "name": "mesh1050_idx_accessor",
            "type": "SCALAR"
        },
        {
            "bufferView": 18,
            "componentType": 5126,
            "count": 288,
            "max": [
                -0.021050000563263893,
                -0.021050000563263893,
                0.004999999888241291
            ],
            "min": [
                -0.02604999952018261,
                -0.02604999952018261,
                0.0
            ],
            "name": "mesh1051_coord_accessor",
            "type": "VEC3"
        },
        {
            "bufferView": 19,
            "componentType": 5126,
            "count": 288,
            "max": [
                1.0,
                1.0,
                -0.0
            ],
            "min": [
                -1.0,
                -1.0,
                -0.0
            ],
            "name": "mesh1051_norm_accessor",
            "type": "VEC3"
        },
        {
            "bufferView": 20,
            "componentType": 5125,
            "count": 864,
            "max": [
                287
            ],
            "min": [
                0
            ],
            "name": "mesh1051_idx_accessor",
            "type": "SCALAR"
        },
        {
            "bufferView": 21,
            "componentType": 5126,
            "count": 9,
            "max": [
                0.0,
                -0.028300000354647636,
                0.004999999888241291
            ],
            "min": [
                -0.02449999935925007,
                -0.02850000001490116,
                0.004800000227987766
            ],
            "name": "mesh1052_coord_accessor",
            "type": "VEC3"
        },
        {
            "bufferView": 22,
            "componentType": 5126,
            "count": 9,
            "max": [
                0.0,
                -0.7071067690849304,
                0.7071067690849304
            ],
            "min": [
                0.0,
                -0.7071067690849304,
                0.7071067690849304
            ],
            "name": "mesh1052_norm_accessor",
            "type": "VEC3"
        },
        {
            "bufferView": 23,
            "componentType": 5125,
            "count": 21,
            "max": [
                8
            ],
            "min": [
                0
            ],
            "name": "mesh1052_idx_accessor",
            "type": "SCALAR"
        },
        {
            "bufferView": 24,
            "componentType": 5126,
            "count": 9,
            "max": [
                0.02449999935925007,
                -0.028300000354647636,
                0.004999999888241291
            ],
            "min": [
                0.0,
                -0.02850000001490116,
                0.004800000227987766
            ],
            "name": "mesh1053_coord_accessor",
            "type": "VEC3"
        },
        {
            "bufferView": 25,
            "componentType": 5126,
            "count": 9,
            "max": [
                0.0,
                -0.7071067690849304,
                0.7071067690849304
            ],
            "min": [
                0.0,
                -0.7071067690849304,
                0.7071067690849304
            ],
            "name": "mesh1053_norm_accessor",
            "type": "VEC3"
        },
        {
            "bufferView": 26,
            "componentType": 5125,
            "count": 21,
            "max": [
                8
            ],
            "min": [
                0
            ],
            "name": "mesh1053_idx_accessor",
            "type": "SCALAR"
        },
        {
            "bufferView": 27,
            "componentType": 5126,
            "count": 214,
            "max": [
                0.028300000354647636,
                -0.0033704598899930716,
                0.004999999888241291
            ],
            "min": [
                0.0033704598899930716,
                -0.028300000354647636,
                0.004999999888241291
            ],
            "name": "mesh1054_coord_accessor",
            "type": "VEC3"
        },
        {
            "bufferView": 28,
            "componentType": 5126,
            "count": 214,
            "max": [
                0.0,
                0.0,
                1.0
            ],
            "min": [
                0.0,
                0.0,
                1.0
            ],
            "name": "mesh1054_norm_accessor",
            "type": "VEC3"
        },
        {
            "bufferView": 29,
            "componentType": 5125,
            "count": 642,
            "max": [
                213
            ],
            "min": [
                0
            ],
            "name": "mesh1054_idx_accessor",
            "type": "SCALAR"
        },
        {
            "bufferView": 30,
            "componentType": 5126,
            "count": 288,
            "max": [
                0.02604999952018261,
                -0.021050000563263893,
                0.004999999888241291
            ],
            "min": [
                0.021050000563263893,
                -0.02604999952018261,
                0.0
            ],
            "name": "mesh1055_coord_accessor",
            "type": "VEC3"
        },
        {
            "bufferView": 31,
            "componentType": 5126,
            "count": 288,
            "max": [
                1.0,
                1.0,
                -0.0
            ],
            "min": [
                -1.0,
                -1.0,
                -0.0
            ],
            "name": "mesh1055_norm_accessor",
            "type": "VEC3"
        },
        {
            "bufferView": 32,
            "componentType": 5125,
            "count": 864,
            "max": [
                287
            ],
            "min": [
                0
            ],
            "name": "mesh1055_idx_accessor",
            "type": "SCALAR"
        },
        {
            "bufferView": 33,
            "componentType": 5126,
            "count": 9,
            "max": [
                0.02850000001490116,
                0.0,
                0.004999999888241291
            ],
            "min": [
                0.028300000354647636,
                -0.02449999935925007,
                0.004800000227987766
            ],
            "name": "mesh1056_coord_accessor",
            "type": "VEC3"
        },
        {
            "bufferView": 34,
            "componentType": 5126,
            "count": 9,
            "max": [
                0.7071067690849304,
                0.0,
                0.7071067690849304
            ],
            "min": [
                0.7071067690849304,
                0.0,
                0.7071067690849304
            ],
            "name": "mesh1056_norm_accessor",
            "type": "VEC3"
        },
        {
            "bufferView": 35,
            "componentType": 5125,
            "count": 21,
            "max": [
                8
            ],
            "min": [
                0
            ],
            "name": "mesh1056_idx_accessor",
            "type": "SCALAR"
        },
        {
            "bufferView": 36,
            "componentType": 5126,
            "count": 9,
            "max": [
                0.02850000001490116,
                0.02449999935925007,
                0.004999999888241291
            ],
            "min": [
                0.028300000354647636,
                0.0,
                0.004800000227987766
            ],
            "name": "mesh1057_coord_accessor",
            "type": "VEC3"
        },
        {
            "bufferView": 37,
            "componentType": 5126,
            "count": 9,
            "max": [
                0.7071067690849304,
                0.0,
                0.7071067690849304
            ],
            "min": [
                0.7071067690849304,
                0.0,
                0.7071067690849304
            ],
            "name": "mesh1057_norm_accessor",
            "type": "VEC3"
        },
        {
            "bufferView": 38,
            "componentType": 5125,
            "count": 21,
            "max": [
                8
            ],
            "min": [
                0
            ],
            "name": "mesh1057_idx_accessor",
            "type": "SCALAR"
        },
        {
            "bufferView": 39,
            "componentType": 5126,
            "count": 214,
            "max": [
                0.028300000354647636,
                0.028300000354647636,
                0.004999999888241291
            ],
            "min": [
                0.0033704598899930716,
                0.0033704598899930716,
                0.004999999888241291
            ],
            "name": "mesh1058_coord_accessor",
            "type": "VEC3"
        },
        {
            "bufferView": 40,
            "componentType": 5126,
            "count": 214,
            "max": [
                0.0,
                0.0,
                1.0
            ],
            "min": [
                0.0,
                0.0,
                1.0
            ],
            "name": "mesh1058_norm_accessor",
            "type": "VEC3"
        },
        {
            "bufferView": 41,
            "componentType": 5125,
            "count": 642,
            "max": [
                213
            ],
            "min": [
                0
            ],
            "name": "mesh1058_idx_accessor",
            "type": "SCALAR"
        },
        {
            "bufferView": 42,
            "componentType": 5126,
            "count": 288,
            "max": [
                0.02604999952018261,
                0.02604999952018261,
                0.004999999888241291
            ],
            "min": [
                0.021050000563263893,
                0.021050000563263893,
                0.0
            ],
            "name": "mesh1059_coord_accessor",
            "type": "VEC3"
        },
        {
            "bufferView": 43,
            "componentType": 5126,
            "count": 288,
            "max": [
                1.0,
                1.0,
                -0.0
            ],
            "min": [
                -1.0,
                -1.0,
                -0.0
            ],
            "name": "mesh1059_norm_accessor",
            "type": "VEC3"
        },
        {
            "bufferView": 44,
            "componentType": 5125,
            "count": 864,
            "max": [
                287
            ],
            "min": [
                0
            ],
            "name": "mesh1059_idx_accessor",
            "type": "SCALAR"
        },
        {
            "bufferView": 45,
            "componentType": 5126,
            "count": 9,
            "max": [
                0.02449999935925007,
                0.02850000001490116,
                0.004999999888241291
            ],
            "min": [
                0.0,
                0.028300000354647636,
                0.004800000227987766
            ],
            "name": "mesh1060_coord_accessor",
            "type": "VEC3"
        },
        {
            "bufferView": 46,
            "componentType": 5126,
            "count": 9,
            "max": [
                0.0,
                0.7071067690849304,
                0.7071067690849304
            ],
            "min": [
                0.0,
                0.7071067690849304,
                0.7071067690849304
            ],
            "name": "mesh1060_norm_accessor",
            "type": "VEC3"
        },
        {
            "bufferView": 47,
            "componentType": 5125,
            "count": 21,
            "max": [
                8
            ],
            "min": [
                0
            ],
            "name": "mesh1060_idx_accessor",
            "type": "SCALAR"
        },
        {
            "bufferView": 48,
            "componentType": 5126,
            "count": 74,
            "max": [
                0.02850000001490116,
                0.02850000001490116,
                0.004999999888241291
            ],
            "min": [
                0.02449999935925007,
                0.02449999935925007,
                0.004800000227987766
            ],
            "name": "mesh1061_coord_accessor",
            "type": "VEC3"
        },
        {
            "bufferView": 49,
            "componentType": 5126,
            "count": 74,
            "max": [
                0.7071067690849304,
                0.7071067690849304,
                0.7071067690849304
            ],
            "min": [
                0.0,
                0.0,
                0.7071067690849304
            ],
            "name": "mesh1061_norm_accessor",
            "type": "VEC3"
        },
        {
            "bufferView": 50,
            "componentType": 5125,
            "count": 216,
            "max": [
                73
            ],
            "min": [
                0
            ],
            "name": "mesh1061_idx_accessor",
            "type": "SCALAR"
        },
        {
            "bufferView": 51,
            "componentType": 5126,
            "count": 74,
            "max": [
                0.02850000001490116,
                0.02850000001490116,
                0.004800000227987766
            ],
            "min": [
                0.02449999935925007,
                0.02449999935925007,
                0.00019999999494757503
            ],
            "name": "mesh1062_coord_accessor",
            "type": "VEC3"
        },
        {
            "bufferView": 52,
            "componentType": 5126,
            "count": 74,
            "max": [
                1.0,
                1.0,
                0.0
            ],
            "min": [
                0.0,
                0.0,
                0.0
            ],
            "name": "mesh1062_norm_accessor",
            "type": "VEC3"
        },
        {
            "bufferView": 53,
            "componentType": 5125,
            "count": 216,
            "max": [
                73
            ],
            "min": [
                0
            ],
            "name": "mesh1062_idx_accessor",
            "type": "SCALAR"
        },
        {
            "bufferView": 54,
            "componentType": 5126,
            "count": 9,
            "max": [
                0.0,
                0.02850000001490116,
                0.004999999888241291
            ],
            "min": [
                -0.02449999935925007,
                0.028300000354647636,
                0.004800000227987766
            ],
            "name": "mesh1063_coord_accessor",
            "type": "VEC3"
        },
        {
            "bufferView": 55,
            "componentType": 5126,
            "count": 9,
            "max": [
                0.0,
                0.7071067690849304,
                0.7071067690849304
            ],
            "min": [
                0.0,
                0.7071067690849304,
                0.7071067690849304
            ],
            "name": "mesh1063_norm_accessor",
            "type": "VEC3"
        },
        {
            "bufferView": 56,
            "componentType": 5125,
            "count": 21,
            "max": [
                8
            ],
            "min": [
                0
            ],
            "name": "mesh1063_idx_accessor",
            "type": "SCALAR"
        },
        {
            "bufferView": 57,
            "componentType": 5126,
            "count": 214,
            "max": [
                -0.0033704598899930716,
                0.028300000354647636,
                0.004999999888241291
            ],
            "min": [
                -0.028300000354647636,
                0.0033704598899930716,
                0.004999999888241291
            ],
            "name": "mesh1064_coord_accessor",
            "type": "VEC3"
        },
        {
            "bufferView": 58,
            "componentType": 5126,
            "count": 214,
            "max": [
                0.0,
                0.0,
                1.0
            ],
            "min": [
                0.0,
                0.0,
                1.0
            ],
            "name": "mesh1064_norm_accessor",
            "type": "VEC3"
        },
        {
            "bufferView": 59,
            "componentType": 5125,
            "count": 642,
            "max": [
                213
            ],
            "min": [
                0
            ],
            "name": "mesh1064_idx_accessor",
            "type": "SCALAR"
        },
        {
            "bufferView": 60,
            "componentType": 5126,
            "count": 288,
            "max": [
                -0.021050000563263893,
                0.02604999952018261,
                0.004999999888241291
            ],
            "min": [
                -0.02604999952018261,
                0.021050000563263893,
                0.0
            ],
            "name": "mesh1065_coord_accessor",
            "type": "VEC3"
        },
        {
            "bufferView": 61,
            "componentType": 5126,
            "count": 288,
            "max": [
                1.0,
                1.0,
                -0.0
            ],
            "min": [
                -1.0,
                -1.0,
                -0.0
            ],
            "name": "mesh1065_norm_accessor",
            "type": "VEC3"
        },
        {
            "bufferView": 62,
            "componentType": 5125,
            "count": 864,
            "max": [
                287
            ],
            "min": [
                0
            ],
            "name": "mesh1065_idx_accessor",
            "type": "SCALAR"
        },
        {
            "bufferView": 63,
            "componentType": 5126,
            "count": 9,
            "max": [
                -0.028300000354647636,
                0.02449999935925007,
                0.004999999888241291
            ],
            "min": [
                -0.02850000001490116,
                0.0,
                0.004800000227987766
            ],
            "name": "mesh1066_coord_accessor",
            "type": "VEC3"
        },
        {
            "bufferView": 64,
            "componentType": 5126,
            "count": 9,
            "max": [
                -0.7071067690849304,
                0.0,
                0.7071067690849304
            ],
            "min": [
                -0.7071067690849304,
                0.0,
                0.7071067690849304
            ],
            "name": "mesh1066_norm_accessor",
            "type": "VEC3"
        },
        {
            "bufferView": 65,
            "componentType": 5125,
            "count": 21,
            "max": [
                8
            ],
            "min": [
                0
            ],
            "name": "mesh1066_idx_accessor",
            "type": "SCALAR"
        },
        {
            "bufferView": 66,
            "componentType": 5126,
            "count": 9,
            "max": [
                -0.028300000354647636,
                0.0,
                0.004999999888241291
            ],
            "min": [
                -0.02850000001490116,
                -0.02449999935925007,
                0.004800000227987766
            ],
            "name": "mesh1067_coord_accessor",
            "type": "VEC3"
        },
        {
            "bufferView": 67,
            "componentType": 5126,
            "count": 9,
            "max": [
                -0.7071067690849304,
                0.0,
                0.7071067690849304
            ],
            "min": [
                -0.7071067690849304,
                0.0,
                0.7071067690849304
            ],
            "name": "mesh1067_norm_accessor",
            "type": "VEC3"
        },
        {
            "bufferView": 68,
            "componentType": 5125,
            "count": 21,
            "max": [
                8
            ],
            "min": [
                0
            ],
            "name": "mesh1067_idx_accessor",
            "type": "SCALAR"
        },
        {
            "bufferView": 69,
            "componentType": 5126,
            "count": 74,
            "max": [
                -0.02449999935925007,
                0.02850000001490116,
                0.004999999888241291
            ],
            "min": [
                -0.02850000001490116,
                0.02449999935925007,
                0.004800000227987766
            ],
            "name": "mesh1068_coord_accessor",
            "type": "VEC3"
        },
        {
            "bufferView": 70,
            "componentType": 5126,
            "count": 74,
            "max": [
                0.0,
                0.7071067690849304,
                0.7071067690849304
            ],
            "min": [
                -0.7071067690849304,
                0.0,
                0.7071067690849304
            ],
            "name": "mesh1068_norm_accessor",
            "type": "VEC3"
        },
        {
            "bufferView": 71,
            "componentType": 5125,
            "count": 216,
            "max": [
                73
            ],
            "min": [
                0
            ],
            "name": "mesh1068_idx_accessor",
            "type": "SCALAR"
        },
        {
            "bufferView": 72,
            "componentType": 5126,
            "count": 5,
            "max": [
                0.02449999935925007,
                0.02850000001490116,
                0.004800000227987766
            ],
            "min": [
                -0.02449999935925007,
                0.02850000001490116,
                0.00019999999494757503
            ],
            "name": "mesh1069_coord_accessor",
            "type": "VEC3"
        },
        {
            "bufferView": 73,
            "componentType": 5126,
            "count": 5,
            "max": [
                0.0,
                1.0,
                0.0
            ],
            "min": [
                0.0,
                1.0,
                0.0
            ],
            "name": "mesh1069_norm_accessor",
            "type": "VEC3"
        },
        {
            "bufferView": 74,
            "componentType": 5125,
            "count": 9,
            "max": [
                4
            ],
            "min": [
                0
            ],
            "name": "mesh1069_idx_accessor",
            "type": "SCALAR"
        },
        {
            "bufferView": 75,
            "componentType": 5126,
            "count": 5,
            "max": [
                0.02449999935925007,
                0.02850000001490116,
                0.00019999999494757503
            ],
            "min": [
                -0.02449999935925007,
                0.028300000354647636,
                0.0
            ],
            "name": "mesh1070_coord_accessor",
            "type": "VEC3"
        },
        {
            "bufferView": 76,
            "componentType": 5126,
            "count": 5,
            "max": [
                0.0,
                0.7071067690849304,
                -0.7071067690849304
            ],
            "min": [
                0.0,
                0.7071067690849304,
                -0.7071067690849304
            ],
            "name": "mesh1070_norm_accessor",
            "type": "VEC3"
        },
        {
            "bufferView": 77,
            "componentType": 5125,
            "count": 9,
            "max": [
                4
            ],
            "min": [
                0
            ],
            "name": "mesh1070_idx_accessor",
            "type": "SCALAR"
        },
        {
            "bufferView": 78,
            "componentType": 5126,
            "count": 74,
            "max": [
                -0.02449999935925007,
                0.02850000001490116,
                0.004800000227987766
            ],
            "min": [
                -0.02850000001490116,
                0.02449999935925007,
                0.00019999999494757503
            ],
            "name": "mesh1071_coord_accessor",
            "type": "VEC3"
        },
        {
            "bufferView": 79,
            "componentType": 5126,
            "count": 74,
            "max": [
                0.0,
                1.0,
                0.0
            ],
            "min": [
                -1.0,
                0.0,
                0.0
            ],
            "name": "mesh1071_norm_accessor",
            "type": "VEC3"
        },
        {
            "bufferView": 80,
            "componentType": 5125,
            "count": 216,
            "max": [
                73
            ],
            "min": [
                0
            ],
            "name": "mesh1071_idx_accessor",
            "type": "SCALAR"
        },
        {
            "bufferView": 81,
            "componentType": 5126,
            "count": 74,
            "max": [
                -0.02449999935925007,
                0.02850000001490116,
                0.00019999999494757503
            ],
            "min": [
                -0.02850000001490116,
                0.02449999935925007,
                -1.5720931501039814e-18
            ],
            "name": "mesh1072_coord_accessor",
            "type": "VEC3"
        },
        {
            "bufferView": 82,
            "componentType": 5126,
            "count": 74,
            "max": [
                0.0,
                0.7071067690849304,
                -0.7071067690849304
            ],
            "min": [
                -0.7071067690849304,
                0.0,
                -0.7071067690849304
            ],
            "name": "mesh1072_norm_accessor",
            "type": "VEC3"
        },
        {
            "bufferView": 83,
            "componentType": 5125,
            "count": 216,
            "max": [
                73
            ],
            "min": [
                0
            ],
            "name": "mesh1072_idx_accessor",
            "type": "SCALAR"
        },
        {
            "bufferView": 84,
            "componentType": 5126,
            "count": 5,
            "max": [
                -0.02850000001490116,
                0.02449999935925007,
                0.004800000227987766
            ],
            "min": [
                -0.02850000001490116,
                -0.02449999935925007,
                0.00019999999494757503
            ],
            "name": "mesh1073_coord_accessor",
            "type": "VEC3"
        },
        {
            "bufferView": 85,
            "componentType": 5126,
            "count": 5,
            "max": [
                -1.0,
                0.0,
                0.0
            ],
            "min": [
                -1.0,
                0.0,
                0.0
            ],
            "name": "mesh1073_norm_accessor",
            "type": "VEC3"
        },
        {
            "bufferView": 86,
            "componentType": 5125,
            "count": 9,
            "max": [
                4
            ],
            "min": [
                0
            ],
            "name": "mesh1073_idx_accessor",
            "type": "SCALAR"
        },
        {
            "bufferView": 87,
            "componentType": 5126,
            "count": 74,
            "max": [
                -0.02449999935925007,
                -0.02449999935925007,
                0.004999999888241291
            ],
            "min": [
                -0.02850000001490116,
                -0.02850000001490116,
                0.004800000227987766
            ],
            "name": "mesh1074_coord_accessor",
            "type": "VEC3"
        },
        {
            "bufferView": 88,
            "componentType": 5126,
            "count": 74,
            "max": [
                0.0,
                0.0,
                0.7071067690849304
            ],
            "min": [
                -0.7071067690849304,
                -0.7071067690849304,
                0.7071067690849304
            ],
            "name": "mesh1074_norm_accessor",
            "type": "VEC3"
        },
        {
            "bufferView": 89,
            "componentType": 5125,
            "count": 216,
            "max": [
                73
            ],
            "min": [
                0
            ],
            "name": "mesh1074_idx_accessor",
            "type": "SCALAR"
        },
        {
            "bufferView": 90,
            "componentType": 5126,
            "count": 5,
            "max": [
                -0.028300000354647636,
                0.02449999935925007,
                0.00019999999494757503
            ],
            "min": [
                -0.02850000001490116,
                -0.02449999935925007,
                0.0
            ],
            "name": "mesh1075_coord_accessor",
            "type": "VEC3"
        },
        {
            "bufferView": 91,
            "componentType": 5126,
            "count": 5,
            "max": [
                -0.7071067690849304,
                0.0,
                -0.7071067690849304
            ],
            "min": [
                -0.7071067690849304,
                0.0,
                -0.7071067690849304
            ],
            "name": "mesh1075_norm_accessor",
            "type": "VEC3"
        },
        {
            "bufferView": 92,
            "componentType": 5125,
            "count": 9,
            "max": [
                4
            ],
            "min": [
                0
            ],
            "name": "mesh1075_idx_accessor",
            "type": "SCALAR"
        },
        {
            "bufferView": 93,
            "componentType": 5126,
            "count": 74,
            "max": [
                -0.02449999935925007,
                -0.02449999935925007,
                0.004800000227987766
            ],
            "min": [
                -0.02850000001490116,
                -0.02850000001490116,
                0.00019999999494757503
            ],
            "name": "mesh1076_coord_accessor",
            "type": "VEC3"
        },
        {
            "bufferView": 94,
            "componentType": 5126,
            "count": 74,
            "max": [
                0.0,
                0.0,
                0.0
            ],
            "min": [
                -1.0,
                -1.0,
                0.0
            ],
            "name": "mesh1076_norm_accessor",
            "type": "VEC3"
        },
        {
            "bufferView": 95,
            "componentType": 5125,
            "count": 216,
            "max": [
                73
            ],
            "min": [
                0
            ],
            "name": "mesh1076_idx_accessor",
            "type": "SCALAR"
        },
        {
            "bufferView": 96,
            "componentType": 5126,
            "count": 74,
            "max": [
                -0.02449999935925007,
                -0.02449999935925007,
                0.00019999999494757503
            ],
            "min": [
                -0.02850000001490116,
                -0.02850000001490116,
                -1.5720931501039814e-18
            ],
            "name": "mesh1077_coord_accessor",
            "type": "VEC3"
        },
        {
            "bufferView": 97,
            "componentType": 5126,
            "count": 74,
            "max": [
                0.0,
                0.0,
                -0.7071067690849304
            ],
            "min": [
                -0.7071067690849304,
                -0.7071067690849304,
                -0.7071067690849304
            ],
            "name": "mesh1077_norm_accessor",
            "type": "VEC3"
        },
        {
            "bufferView": 98,
            "componentType": 5125,
            "count": 216,
            "max": [
                73
            ],
            "min": [
                0
            ],
            "name": "mesh1077_idx_accessor",
            "type": "SCALAR"
        },
        {
            "bufferView": 99,
            "componentType": 5126,
            "count": 5,
            "max": [
                0.02449999935925007,
                -0.02850000001490116,
                0.004800000227987766
            ],
            "min": [
                -0.02449999935925007,
                -0.02850000001490116,
                0.00019999999494757503
            ],
            "name": "mesh1078_coord_accessor",
            "type": "VEC3"
        },
        {
            "bufferView": 100,
            "componentType": 5126,
            "count": 5,
            "max": [
                0.0,
                -1.0,
                0.0
            ],
            "min": [
                0.0,
                -1.0,
                0.0
            ],
            "name": "mesh1078_norm_accessor",
            "type": "VEC3"
        },
        {
            "bufferView": 101,
            "componentType": 5125,
            "count": 9,
            "max": [
                4
            ],
            "min": [
                0
            ],
            "name": "mesh1078_idx_accessor",
            "type": "SCALAR"
        },
        {
            "bufferView": 102,
            "componentType": 5126,
            "count": 74,
            "max": [
                0.02850000001490116,
                -0.02449999935925007,
                0.004999999888241291
            ],
            "min": [
                0.02449999935925007,
                -0.02850000001490116,
                0.004800000227987766
            ],
            "name": "mesh1079_coord_accessor",
            "type": "VEC3"
        },
        {
            "bufferView": 103,
            "componentType": 5126,
            "count": 74,
            "max": [
                0.7071067690849304,
                0.0,
                0.7071067690849304
            ],
            "min": [
                0.0,
                -0.7071067690849304,
                0.7071067690849304
            ],
            "name": "mesh1079_norm_accessor",
            "type": "VEC3"
        },
        {
            "bufferView": 104,
            "componentType": 5125,
            "count": 216,
            "max": [
                73
            ],
            "min": [
                0
            ],
            "name": "mesh1079_idx_accessor",
            "type": "SCALAR"
        },
        {
            "bufferView": 105,
            "componentType": 5126,
            "count": 5,
            "max": [
                0.02850000001490116,
                0.02449999935925007,
                0.004800000227987766
            ],
            "min": [
                0.02850000001490116,
                -0.02449999935925007,
                0.00019999999494757503
            ],
            "name": "mesh1080_coord_accessor",
            "type": "VEC3"
        },
        {
            "bufferView": 106,
            "componentType": 5126,
            "count": 5,
            "max": [
                1.0,
                0.0,
                0.0
            ],
            "min": [
                1.0,
                0.0,
                0.0
            ],
            "name": "mesh1080_norm_accessor",
            "type": "VEC3"
        },
        {
            "bufferView": 107,
            "componentType": 5125,
            "count": 9,
            "max": [
                4
            ],
            "min": [
                0
            ],
            "name": "mesh1080_idx_accessor",
            "type": "SCALAR"
        },
        {
            "bufferView": 108,
            "componentType": 5126,
            "count": 74,
            "max": [
                0.02850000001490116,
                0.02850000001490116,
                0.00019999999494757503
            ],
            "min": [
                0.02449999935925007,
                0.02449999935925007,
                -1.5720931501039814e-18
            ],
            "name": "mesh1081_coord_accessor",
            "type": "VEC3"
        },
        {
            "bufferView": 109,
            "componentType": 5126,
            "count": 74,
            "max": [
                0.7071067690849304,
                0.7071067690849304,
                -0.7071067690849304
            ],
            "min": [
                0.0,
                0.0,
                -0.7071067690849304
            ],
            "name": "mesh1081_norm_accessor",
            "type": "VEC3"
        },
        {
            "bufferView": 110,
            "componentType": 5125,
            "count": 216,
            "max": [
                73
            ],
            "min": [
                0
            ],
            "name": "mesh1081_idx_accessor",
            "type": "SCALAR"
        },
        {
            "bufferView": 111,
            "componentType": 5126,
            "count": 873,
            "max": [
                0.028300000354647636,
                0.028300000354647636,
                0.0
            ],
            "min": [
                -0.028300000354647636,
                -0.028300000354647636,
                -1.5720931501039814e-18
            ],
            "name": "mesh1082_coord_accessor",
            "type": "VEC3"
        },
        {
            "bufferView": 112,
            "componentType": 5126,
            "count": 873,
            "max": [
                -0.0,
                -0.0,
                -1.0
            ],
            "min": [
                -0.0,
                -0.0,
                -1.0
            ],
            "name": "mesh1082_norm_accessor",
            "type": "VEC3"
        },
        {
            "bufferView": 113,
            "componentType": 5125,
            "count": 2646,
            "max": [
                872
            ],
            "min": [
                0
            ],
            "name": "mesh1082_idx_accessor",
            "type": "SCALAR"
        },
        {
            "bufferView": 114,
            "componentType": 5126,
            "count": 5,
            "max": [
                0.02850000001490116,
                0.02449999935925007,
                0.00019999999494757503
            ],
            "min": [
                0.028300000354647636,
                -0.02449999935925007,
                0.0
            ],
            "name": "mesh1083_coord_accessor",
            "type": "VEC3"
        },
        {
            "bufferView": 115,
            "componentType": 5126,
            "count": 5,
            "max": [
                0.7071067690849304,
                0.0,
                -0.7071067690849304
            ],
            "min": [
                0.7071067690849304,
                0.0,
                -0.7071067690849304
            ],
            "name": "mesh1083_norm_accessor",
            "type": "VEC3"
        },
        {
            "bufferView": 116,
            "componentType": 5125,
            "count": 9,
            "max": [
                4
            ],
            "min": [
                0
            ],
            "name": "mesh1083_idx_accessor",
            "type": "SCALAR"
        },
        {
            "bufferView": 117,
            "componentType": 5126,
            "count": 74,
            "max": [
                0.02850000001490116,
                -0.02449999935925007,
                0.00019999999494757503
            ],
            "min": [
                0.02449999935925007,
                -0.02850000001490116,
                -1.5720931501039814e-18
            ],
            "name": "mesh1084_coord_accessor",
            "type": "VEC3"
        },
        {
            "bufferView": 118,
            "componentType": 5126,
            "count": 74,
            "max": [
                0.7071067690849304,
                0.0,
                -0.7071067690849304
            ],
            "min": [
                0.0,
                -0.7071067690849304,
                -0.7071067690849304
            ],
            "name": "mesh1084_norm_accessor",
            "type": "VEC3"
        },
        {
            "bufferView": 119,
            "componentType": 5125,
            "count": 216,
            "max": [
                73
            ],
            "min": [
                0
            ],
            "name": "mesh1084_idx_accessor",
            "type": "SCALAR"
        },
        {
            "bufferView": 120,
            "componentType": 5126,
            "count": 5,
            "max": [
                0.02449999935925007,
                -0.028300000354647636,
                0.00019999999494757503
            ],
            "min": [
                -0.02449999935925007,
                -0.02850000001490116,
                0.0
            ],
            "name": "mesh1085_coord_accessor",
            "type": "VEC3"
        },
        {
            "bufferView": 121,
            "componentType": 5126,
            "count": 5,
            "max": [
                0.0,
                -0.7071067690849304,
                -0.7071067690849304
            ],
            "min": [
                0.0,
                -0.7071067690849304,
                -0.7071067690849304
            ],
            "name": "mesh1085_norm_accessor",
            "type": "VEC3"
        },
        {
            "bufferView": 122,
            "componentType": 5125,
            "count": 9,
            "max": [
                4
            ],
            "min": [
                0
            ],
            "name": "mesh1085_idx_accessor",
            "type": "SCALAR"
        },
        {
            "bufferView": 123,
            "componentType": 5126,
            "count": 74,
            "max": [
                0.02850000001490116,
                -0.02449999935925007,
                0.004800000227987766
            ],
            "min": [
                0.02449999935925007,
                -0.02850000001490116,
                0.00019999999494757503
            ],
            "name": "mesh1086_coord_accessor",
            "type": "VEC3"
        },
        {
            "bufferView": 124,
            "componentType": 5126,
            "count": 74,
            "max": [
                1.0,
                0.0,
                0.0
            ],
            "min": [
                0.0,
                -1.0,
                0.0
            ],
            "name": "mesh1086_norm_accessor",
            "type": "VEC3"
        },
        {
            "bufferView": 125,
            "componentType": 5125,
            "count": 216,
            "max": [
                73
            ],
            "min": [
                0
            ],
            "name": "mesh1086_idx_accessor",
            "type": "SCALAR"
        }
    ],
    "asset": {
        "generator": "ONSHAPE BY PTC INC, 1.217",
        "version": "2.0"
    },
    "bufferViews": [
        {
            "buffer": 0,
            "byteLength": 3456,
            "name": "mesh1045_coord_bufferView",
            "target": 34962
        },
        {
            "buffer": 0,
            "byteLength": 3456,
            "byteOffset": 3456,
            "name": "mesh1045_norm_bufferView",
            "target": 34962
        },
        {
            "buffer": 0,
            "byteLength": 3456,
            "byteOffset": 6912,
            "name": "mesh1045_idx_bufferView",
            "target": 34963
        },
        {
            "buffer": 0,
            "byteLength": 3456,
            "byteOffset": 10368,
            "name": "mesh1046_coord_bufferView",
            "target": 34962
        },
        {
            "buffer": 0,
            "byteLength": 3456,
            "byteOffset": 13824,
            "name": "mesh1046_norm_bufferView",
            "target": 34962
        },
        {
            "buffer": 0,
            "byteLength": 3456,
            "byteOffset": 17280,
            "name": "mesh1046_idx_bufferView",
            "target": 34963
        },
        {
            "buffer": 0,
            "byteLength": 3456,
            "byteOffset": 20736,
            "name": "mesh1047_coord_bufferView",
            "target": 34962
        },
        {
            "buffer": 0,
            "byteLength": 3456,
            "byteOffset": 24192,
            "name": "mesh1047_norm_bufferView",
            "target": 34962
        },
        {
            "buffer": 0,
            "byteLength": 3456,
            "byteOffset": 27648,
            "name": "mesh1047_idx_bufferView",
            "target": 34963
        },
        {
            "buffer": 0,
            "byteLength": 3456,
            "byteOffset": 31104,
            "name": "mesh1048_coord_bufferView",
            "target": 34962
        },
        {
            "buffer": 0,
            "byteLength": 3456,
            "byteOffset": 34560,
            "name": "mesh1048_norm_bufferView",
            "target": 34962
        },
        {
            "buffer": 0,
            "byteLength": 3456,
            "byteOffset": 38016,
            "name": "mesh1048_idx_bufferView",
            "target": 34963
        },
        {
            "buffer": 0,
            "byteLength": 3840,
            "byteOffset": 41472,
            "name": "mesh1049_coord_bufferView",
            "target": 34962
        },
        {
            "buffer": 0,
            "byteLength": 3840,
            "byteOffset": 45312,
            "name": "mesh1049_norm_bufferView",
            "target": 34962
        },
        {
            "buffer": 0,
            "byteLength": 3840,
            "byteOffset": 49152,
            "name": "mesh1049_idx_bufferView",
            "target": 34963
        },
        {
            "buffer": 0,
            "byteLength": 2568,
            "byteOffset": 52992,
            "name": "mesh1050_coord_bufferView",
            "target": 34962
        },
        {
            "buffer": 0,
            "byteLength": 2568,
            "byteOffset": 55560,
            "name": "mesh1050_norm_bufferView",
            "target": 34962
        },
        {
            "buffer": 0,
            "byteLength": 2568,
            "byteOffset": 58128,
            "name": "mesh1050_idx_bufferView",
            "target": 34963
        },
        {
            "buffer": 0,
            "byteLength": 3456,
            "byteOffset": 60696,
            "name": "mesh1051_coord_bufferView",
            "target": 34962
        },
        {
            "buffer": 0,
            "byteLength": 3456,
            "byteOffset": 64152,
            "name": "mesh1051_norm_bufferView",
            "target": 34962
        },
        {
            "buffer": 0,
            "byteLength": 3456,
            "byteOffset": 67608,
            "name": "mesh1051_idx_bufferView",
            "target": 34963
        },
        {
            "buffer": 0,
            "byteLength": 108,
            "byteOffset": 71064,
            "name": "mesh1052_coord_bufferView",
            "target": 34962
        },
        {
            "buffer": 0,
            "byteLength": 108,
            "byteOffset": 71172,
            "name": "mesh1052_norm_bufferView",
            "target": 34962
        },
        {
            "buffer": 0,
            "byteLength": 84,
            "byteOffset": 71280,
            "name": "mesh1052_idx_bufferView",
            "target": 34963
        },
        {
            "buffer": 0,
            "byteLength": 108,
            "byteOffset": 71364,
            "name": "mesh1053_coord_bufferView",
            "target": 34962
        },
        {
            "buffer": 0,
            "byteLength": 108,
            "byteOffset": 71472,
            "name": "mesh1053_norm_bufferView",
            "target": 34962
        },
        {
            "buffer": 0,
            "byteLength": 84,
            "byteOffset": 71580,
            "name": "mesh1053_idx_bufferView",
            "target": 34963
        },
        {
            "buffer": 0,
            "byteLength": 2568,
            "byteOffset": 71664,
            "name": "mesh1054_coord_bufferView",
            "target": 34962
        },
        {
            "buffer": 0,
            "byteLength": 2568,
            "byteOffset": 74232,
            "name": "mesh1054_norm_bufferView",
            "target": 34962
        },
        {
            "buffer": 0,
            "byteLength": 2568,
            "byteOffset": 76800,
            "name": "mesh1054_idx_bufferView",
            "target": 34963
        },
        {
            "buffer": 0,
            "byteLength": 3456,
            "byteOffset": 79368,
            "name": "mesh1055_coord_bufferView",
            "target": 34962
        },
        {
            "buffer": 0,
            "byteLength": 3456,
            "byteOffset": 82824,
            "name": "mesh1055_norm_bufferView",
            "target": 34962
        },
        {
            "buffer": 0,
            "byteLength": 3456,
            "byteOffset": 86280,
            "name": "mesh1055_idx_bufferView",
            "target": 34963
        },
        {
            "buffer": 0,
            "byteLength": 108,
            "byteOffset": 89736,
            "name": "mesh1056_coord_bufferView",
            "target": 34962
        },
        {
            "buffer": 0,
            "byteLength": 108,
            "byteOffset": 89844,
            "name": "mesh1056_norm_bufferView",
            "target": 34962
        },
        {
            "buffer": 0,
            "byteLength": 84,
            "byteOffset": 89952,
            "name": "mesh1056_idx_bufferView",
            "target": 34963
        },
        {
            "buffer": 0,
            "byteLength": 108,
            "byteOffset": 90036,
            "name": "mesh1057_coord_bufferView",
            "target": 34962
        },
        {
            "buffer": 0,
            "byteLength": 108,
            "byteOffset": 90144,
            "name": "mesh1057_norm_bufferView",
            "target": 34962
        },
        {
            "buffer": 0,
            "byteLength": 84,
            "byteOffset": 90252,
            "name": "mesh1057_idx_bufferView",
            "target": 34963
        },
        {
            "buffer": 0,
            "byteLength": 2568,
            "byteOffset": 90336,
            "name": "mesh1058_coord_bufferView",
            "target": 34962
        },
        {
            "buffer": 0,
            "byteLength": 2568,
            "byteOffset": 92904,
            "name": "mesh1058_norm_bufferView",
            "target": 34962
        },
        {
            "buffer": 0,
            "byteLength": 2568,
            "byteOffset": 95472,
            "name": "mesh1058_idx_bufferView",
            "target": 34963
        },
        {
            "buffer": 0,
            "byteLength": 3456,
            "byteOffset": 98040,
            "name": "mesh1059_coord_bufferView",
            "target": 34962
        },
        {
            "buffer": 0,
            "byteLength": 3456,
            "byteOffset": 101496,
            "name": "mesh1059_norm_bufferView",
            "target": 34962
        },
        {
            "buffer": 0,
            "byteLength": 3456,
            "byteOffset": 104952,
            "name": "mesh1059_idx_bufferView",
            "target": 34963
        },
        {
            "buffer": 0,
            "byteLength": 108,
            "byteOffset": 108408,
            "name": "mesh1060_coord_bufferView",
            "target": 34962
        },
        {
            "buffer": 0,
            "byteLength": 108,
            "byteOffset": 108516,
            "name": "mesh1060_norm_bufferView",
            "target": 34962
        },
        {
            "buffer": 0,
            "byteLength": 84,
            "byteOffset": 108624,
            "name": "mesh1060_idx_bufferView",
            "target": 34963
        },
        {
            "buffer": 0,
            "byteLength": 888,
            "byteOffset": 108708,
            "name": "mesh1061_coord_bufferView",
            "target": 34962
        },
        {
            "buffer": 0,
            "byteLength": 888,
            "byteOffset": 109596,
            "name": "mesh1061_norm_bufferView",
            "target": 34962
        },
        {
            "buffer": 0,
            "byteLength": 864,
            "byteOffset": 110484,
            "name": "mesh1061_idx_bufferView",
            "target": 34963
        },
        {
            "buffer": 0,
            "byteLength": 888,
            "byteOffset": 111348,
            "name": "mesh1062_coord_bufferView",
            "target": 34962
        },
        {
            "buffer": 0,
            "byteLength": 888,
            "byteOffset": 112236,
            "name": "mesh1062_norm_bufferView",
            "target": 34962
        },
        {
            "buffer": 0,
            "byteLength": 864,
            "byteOffset": 113124,
            "name": "mesh1062_idx_bufferView",
            "target": 34963
        },
        {
            "buffer": 0,
            "byteLength": 108,
            "byteOffset": 113988,
            "name": "mesh1063_coord_bufferView",
            "target": 34962
        },
        {
            "buffer": 0,
            "byteLength": 108,
            "byteOffset": 114096,
            "name": "mesh1063_norm_bufferView",
            "target": 34962
        },
        {
            "buffer": 0,
            "byteLength": 84,
            "byteOffset": 114204,
            "name": "mesh1063_idx_bufferView",
            "target": 34963
        },
        {
            "buffer": 0,
            "byteLength": 2568,
            "byteOffset": 114288,
            "name": "mesh1064_coord_bufferView",
            "target": 34962
        },
        {
            "buffer": 0,
            "byteLength": 2568,
            "byteOffset": 116856,
            "name": "mesh1064_norm_bufferView",
            "target": 34962
        },
        {
            "buffer": 0,
            "byteLength": 2568,
            "byteOffset": 119424,
            "name": "mesh1064_idx_bufferView",
            "target": 34963
        },
        {
            "buffer": 0,
            "byteLength": 3456,
            "byteOffset": 121992,
            "name": "mesh1065_coord_bufferView",
            "target": 34962
        },
        {
            "buffer": 0,
            "byteLength": 3456,
            "byteOffset": 125448,
            "name": "mesh1065_norm_bufferView",
            "target": 34962
        },
        {
            "buffer": 0,
            "byteLength": 3456,
            "byteOffset": 128904,
            "name": "mesh1065_idx_bufferView",
            "target": 34963
        },
        {
            "buffer": 0,
            "byteLength": 108,
            "byteOffset": 132360,
            "name": "mesh1066_coord_bufferView",
            "target": 34962
        },
        {
            "buffer": 0,
            "byteLength": 108,
            "byteOffset": 132468,
            "name": "mesh1066_norm_bufferView",
            "target": 34962
        },
        {
            "buffer": 0,
            "byteLength": 84,
            "byteOffset": 132576,
            "name": "mesh1066_idx_bufferView",
            "target": 34963
        },
        {
            "buffer": 0,
            "byteLength": 108,
            "byteOffset": 132660,
            "name": "mesh1067_coord_bufferView",
            "target": 34962
        },
        {
            "buffer": 0,
            "byteLength": 108,
            "byteOffset": 132768,
            "name": "mesh1067_norm_bufferView",
            "target": 34962
        },
        {
            "buffer": 0,
            "byteLength": 84,
            "byteOffset": 132876,
            "name": "mesh1067_idx_bufferView",
            "target": 34963
        },
        {
            "buffer": 0,
            "byteLength": 888,
            "byteOffset": 132960,
            "name": "mesh1068_coord_bufferView",
            "target": 34962
        },
        {
            "buffer": 0,
            "byteLength": 888,
            "byteOffset": 133848,
            "name": "mesh1068_norm_bufferView",
            "target": 34962
        },
        {
            "buffer": 0,
            "byteLength": 864,
            "byteOffset": 134736,
            "name": "mesh1068_idx_bufferView",
            "target": 34963
        },
        {
            "buffer": 0,
            "byteLength": 60,
            "byteOffset": 135600,
            "name": "mesh1069_coord_bufferView",
            "target": 34962
        },
        {
            "buffer": 0,
            "byteLength": 60,
            "byteOffset": 135660,
            "name": "mesh1069_norm_bufferView",
            "target": 34962
        },
        {
            "buffer": 0,
            "byteLength": 36,
            "byteOffset": 135720,
            "name": "mesh1069_idx_bufferView",
            "target": 34963
        },
        {
            "buffer": 0,
            "byteLength": 60,
            "byteOffset": 135756,
            "name": "mesh1070_coord_bufferView",
            "target": 34962
        },
        {
            "buffer": 0,
            "byteLength": 60,
            "byteOffset": 135816,
            "name": "mesh1070_norm_bufferView",
            "target": 34962
        },
        {
            "buffer": 0,
            "byteLength": 36,
            "byteOffset": 135876,
            "name": "mesh1070_idx_bufferView",
            "target": 34963
        },
        {
            "buffer": 0,
            "byteLength": 888,
            "byteOffset": 135912,
            "name": "mesh1071_coord_bufferView",
            "target": 34962
        },
        {
            "buffer": 0,
            "byteLength": 888,
            "byteOffset": 136800,
            "name": "mesh1071_norm_bufferView",
            "target": 34962
        },
        {
            "buffer": 0,
            "byteLength": 864,
            "byteOffset": 137688,
            "name": "mesh1071_idx_bufferView",
            "target": 34963
        },
        {
            "buffer": 0,
            "byteLength": 888,
            "byteOffset": 138552,
            "name": "mesh1072_coord_bufferView",
            "target": 34962
        },
        {
            "buffer": 0,
            "byteLength": 888,
            "byteOffset": 139440,
            "name": "mesh1072_norm_bufferView",
            "target": 34962
        },
        {
            "buffer": 0,
            "byteLength": 864,
            "byteOffset": 140328,
            "name": "mesh1072_idx_bufferView",
            "target": 34963
        },
        {
            "buffer": 0,
            "byteLength": 60,
            "byteOffset": 141192,
            "name": "mesh1073_coord_bufferView",
            "target": 34962
        },
        {
            "buffer": 0,
            "byteLength": 60,
            "byteOffset": 141252,
            "name": "mesh1073_norm_bufferView",
            "target": 34962
        },
        {
            "buffer": 0,
            "byteLength": 36,
            "byteOffset": 141312,
            "name": "mesh1073_idx_bufferView",
            "target": 34963
        },
        {
            "buffer": 0,
            "byteLength": 888,
            "byteOffset": 141348,
            "name": "mesh1074_coord_bufferView",
            "target": 34962
        },
        {
            "buffer": 0,
            "byteLength": 888,
            "byteOffset": 142236,
            "name": "mesh1074_norm_bufferView",
            "target": 34962
        },
        {
            "buffer": 0,
            "byteLength": 864,
            "byteOffset": 143124,
            "name": "mesh1074_idx_bufferView",
            "target": 34963
        },
        {
            "buffer": 0,
            "byteLength": 60,
            "byteOffset": 143988,
            "name": "mesh1075_coord_bufferView",
            "target": 34962
        },
        {
            "buffer": 0,
            "byteLength": 60,
            "byteOffset": 144048,
            "name": "mesh1075_norm_bufferView",
            "target": 34962
        },
        {
            "buffer": 0,
            "byteLength": 36,
            "byteOffset": 144108,
            "name": "mesh1075_idx_bufferView",
            "target": 34963
        },
        {
            "buffer": 0,
            "byteLength": 888,
            "byteOffset": 144144,
            "name": "mesh1076_coord_bufferView",
            "target": 34962
        },
        {
            "buffer": 0,
            "byteLength": 888,
            "byteOffset": 145032,
            "name": "mesh1076_norm_bufferView",
            "target": 34962
        },
        {
            "buffer": 0,
            "byteLength": 864,
            "byteOffset": 145920,
            "name": "mesh1076_idx_bufferView",
            "target": 34963
        },
        {
            "buffer": 0,
            "byteLength": 888,
            "byteOffset": 146784,
            "name": "mesh1077_coord_bufferView",
            "target": 34962
        },
        {
            "buffer": 0,
            "byteLength": 888,
            "byteOffset": 147672,
            "name": "mesh1077_norm_bufferView",
            "target": 34962
        },
        {
            "buffer": 0,
            "byteLength": 864,
            "byteOffset": 148560,
            "name": "mesh1077_idx_bufferView",
            "target": 34963
        },
        {
            "buffer": 0,
            "byteLength": 60,
            "byteOffset": 149424,
            "name": "mesh1078_coord_bufferView",
            "target": 34962
        },
        {
            "buffer": 0,
            "byteLength": 60,
            "byteOffset": 149484,
            "name": "mesh1078_norm_bufferView",
            "target": 34962
        },
        {
            "buffer": 0,
            "byteLength": 36,
            "byteOffset": 149544,
            "name": "mesh1078_idx_bufferView",
            "target": 34963
        },
        {
            "buffer": 0,
            "byteLength": 888,
            "byteOffset": 149580,
            "name": "mesh1079_coord_bufferView",
            "target": 34962
        },
        {
            "buffer": 0,
            "byteLength": 888,
            "byteOffset": 150468,
            "name": "mesh1079_norm_bufferView",
            "target": 34962
        },
        {
            "buffer": 0,
            "byteLength": 864,
            "byteOffset": 151356,
            "name": "mesh1079_idx_bufferView",
            "target": 34963
        },
        {
            "buffer": 0,
            "byteLength": 60,
            "byteOffset": 152220,
            "name": "mesh1080_coord_bufferView",
            "target": 34962
        },
        {
            "buffer": 0,
            "byteLength": 60,
            "byteOffset": 152280,
            "name": "mesh1080_norm_bufferView",
            "target": 34962
        },
        {
            "buffer": 0,
            "byteLength": 36,
            "byteOffset": 152340,
            "name": "mesh1080_idx_bufferView",
            "target": 34963
        },
        {
            "buffer": 0,
            "byteLength": 888,
            "byteOffset": 152376,
            "name": "mesh1081_coord_bufferView",
            "target": 34962
        },
        {
            "buffer": 0,
            "byteLength": 888,
            "byteOffset": 153264,
            "name": "mesh1081_norm_bufferView",
            "target": 34962
        },
        {
            "buffer": 0,
            "byteLength": 864,
            "byteOffset": 154152,
            "name": "mesh1081_idx_bufferView",
            "target": 34963
        },
        {
            "buffer": 0,
            "byteLength": 10476,
            "byteOffset": 155016,
            "name": "mesh1082_coord_bufferView",
            "target": 34962
        },
        {
            "buffer": 0,
            "byteLength": 10476,
            "byteOffset": 165492,
            "name": "mesh1082_norm_bufferView",
            "target": 34962
        },
        {
            "buffer": 0,
            "byteLength": 10584,
            "byteOffset": 175968,
            "name": "mesh1082_idx_bufferView",
            "target": 34963
        },
        {
            "buffer": 0,
            "byteLength": 60,
            "byteOffset": 186552,
            "name": "mesh1083_coord_bufferView",
            "target": 34962
        },
        {
            "buffer": 0,
            "byteLength": 60,
            "byteOffset": 186612,
            "name": "mesh1083_norm_bufferView",
            "target": 34962
        },
        {
            "buffer": 0,
            "byteLength": 36,
            "byteOffset": 186672,
            "name": "mesh1083_idx_bufferView",
            "target": 34963
        },
        {
            "buffer": 0,
            "byteLength": 888,
            "byteOffset": 186708,
            "name": "mesh1084_coord_bufferView",
            "target": 34962
        },
        {
            "buffer": 0,
            "byteLength": 888,
            "byteOffset": 187596,
            "name": "mesh1084_norm_bufferView",
            "target": 34962
        },
        {
            "buffer": 0,
            "byteLength": 864,
            "byteOffset": 188484,
            "name": "mesh1084_idx_bufferView",
            "target": 34963
        },
        {
            "buffer": 0,
            "byteLength": 60,
            "byteOffset": 189348,
            "name": "mesh1085_coord_bufferView",
            "target": 34962
        },
        {
            "buffer": 0,
            "byteLength": 60,
            "byteOffset": 189408,
            "name": "mesh1085_norm_bufferView",
            "target": 34962
        },
        {
            "buffer": 0,
            "byteLength": 36,
            "byteOffset": 189468,
            "name": "mesh1085_idx_bufferView",
            "target": 34963
        },
        {
            "buffer": 0,
            "byteLength": 888,
            "byteOffset": 189504,
            "name": "mesh1086_coord_bufferView",
            "target": 34962
        },
        {
            "buffer": 0,
            "byteLength": 888,
            "byteOffset": 190392,
            "name": "mesh1086_norm_bufferView",
            "target": 34962
        },
        {
            "buffer": 0,
            "byteLength": 864,
            "byteOffset": 191280,
            "name": "mesh1086_idx_bufferView",
            "target": 34963
        }
    ],
    "buffers": [
        {
            "byteLength": 192144,
            "name": "Total_buffer",
            "uri": "data:application/octet-stream;base64,"
        }
    ],
    "extensionsUsed": [
        "PTC_onshape_metadata"
    ],
    "materials": [
        {
            "doubleSided": true,
            "name": "0.980392_0.713725_0.003922_0.000000_0.000000",
            "pbrMetallicRoughness": {
                "baseColorFactor": [
                    0.9803921580314636,
                    0.7137255072593689,
                    0.003921568859368563,
                    1.0
                ],
                "metallicFactor": 0.0
            }
        },
        {
            "doubleSided": true,
            "name": "0.231373_0.380392_0.705882_0.000000_0.000000",
            "pbrMetallicRoughness": {
                "baseColorFactor": [
                    0.23137255012989044,
                    0.3803921639919281,
                    0.7058823704719543,
                    1.0
                ],
                "metallicFactor": 0.0
            }
        },
        {
            "doubleSided": true,
            "name": "0.768627_0.886275_0.952941_0.000000_0.000000",
            "pbrMetallicRoughness": {
                "baseColorFactor": [
                    0.7686274647712708,
                    0.886274516582489,
                    0.9529411792755127,
                    1.0
                ],
                "metallicFactor": 0.0
            }
        },
        {
            "doubleSided": true,
            "name": "0.498039_0.498039_0.498039_0.000000_0.000000",
            "pbrMetallicRoughness": {
                "baseColorFactor": [
                    0.49803921580314636,
                    0.49803921580314636,
                    0.49803921580314636,
                    1.0
                ],
                "metallicFactor": 0.0
            }
        },
        {
            "doubleSided": true,
            "name": "0.615686_0.811765_0.929412_0.000000_0.000000",
            "pbrMetallicRoughness": {
                "baseColorFactor": [
                    0.615686297416687,
                    0.8117647171020508,
                    0.929411768913269,
                    1.0
                ],
                "metallicFactor": 0.0
            }
        },
        {
            "doubleSided": true,
            "name": "0.647059_0.647059_0.647059_0.000000_0.000000",
            "pbrMetallicRoughness": {
                "baseColorFactor": [
                    0.6470588445663452,
                    0.6470588445663452,
                    0.6470588445663452,
                    1.0
                ],
                "metallicFactor": 0.0
            }
        },
        {
            "doubleSided": true,
            "name": "0.972549_0.529412_0.003922_0.000000_0.000000",
            "pbrMetallicRoughness": {
                "baseColorFactor": [
                    0.9725490212440491,
                    0.529411792755127,
                    0.003921568859368563,
                    1.0
                ],
                "metallicFactor": 0.0
            }
        },
        {
            "doubleSided": true,
            "name": "0.996078_0.996078_1.000000_0.000000_0.000000",
            "pbrMetallicRoughness": {
                "baseColorFactor": [
                    0.9960784316062927,
                    0.9960784316062927,
                    1.0,
                    1.0
                ],
                "metallicFactor": 0.0
            }
        },
        {
            "doubleSided": true,
            "name": "0.250980_0.250980_0.250980_0.000000_0.000000",
            "pbrMetallicRoughness": {
                "baseColorFactor": [
                    0.250980406999588,
                    0.250980406999588,
                    0.250980406999588,
                    1.0
                ],
                "metallicFactor": 0.0
            }
        },
        {
            "doubleSided": true,
            "name": "0.749020_0.749020_0.749020_0.000000_0.000000",
            "pbrMetallicRoughness": {
                "baseColorFactor": [
                    0.7490196228027344,
                    0.7490196228027344,
                    0.7490196228027344,
                    1.0
                ],
                "metallicFactor": 0.0
            }
        },
        {
            "doubleSided": true,
            "name": "0.039216_0.039216_0.039216_0.000000_0.000000",
            "pbrMetallicRoughness": {
                "baseColorFactor": [
                    0.03921568766236305,
                    0.03921568766236305,
                    0.03921568766236305,
                    1.0
                ],
                "metallicFactor": 0.0
            }
        }
    ],
    "meshes": [
        {
            "name": "mesh1045_mesh",
            "primitives": [
                {
                    "attributes": {
                        "NORMAL": 1,
                        "POSITION": 0
                    },
                    "indices": 2,
                    "material": 7
                }
            ]
        },
        {
            "name": "mesh1046_mesh",
            "primitives": [
                {
                    "attributes": {
                        "NORMAL": 4,
                        "POSITION": 3
                    },
                    "indices": 5,
                    "material": 7
                }
            ]
        },
        {
            "name": "mesh1047_mesh",
            "primitives": [
                {
                    "attributes": {
                        "NORMAL": 7,
                        "POSITION": 6
                    },
                    "indices": 8,
                    "material": 7
                }
            ]
        },
        {
            "name": "mesh1048_mesh",
            "primitives": [
                {
                    "attributes": {
                        "NORMAL": 10,
                        "POSITION": 9
                    },
                    "indices": 11,
                    "material": 7
                }
            ]
        },
        {
            "name": "mesh1049_mesh",
            "primitives": [
                {
                    "attributes": {
                        "NORMAL": 13,
                        "POSITION": 12
                    },
                    "indices": 14,
                    "material": 7
                }
            ]
        },
        {
            "name": "mesh1050_mesh",
            "primitives": [
                {
                    "attributes": {
                        "NORMAL": 16,
                        "POSITION": 15
                    },
                    "indices": 17,
                    "material": 7
                }
            ]
        },
        {
            "name": "mesh1051_mesh",
            "primitives": [
                {
                    "attributes": {
                        "NORMAL": 19,
                        "POSITION": 18
                    },
                    "indices": 20,
                    "material": 7
                }
            ]
        },
        {
            "name": "mesh1052_mesh",
            "primitives": [
                {
                    "attributes": {
                        "NORMAL": 22,
                        "POSITION": 21
                    },
                    "indices": 23,
                    "material": 7
                }
            ]
        },
        {
            "name": "mesh1053_mesh",
            "primitives": [
                {
                    "attributes": {
                        "NORMAL": 25,
                        "POSITION": 24
                    },
                    "indices": 26,
                    "material": 7
                }
            ]
        },
        {
            "name": "mesh1054_mesh",
            "primitives": [
                {
                    "attributes": {
                        "NORMAL": 28,
                        "POSITION": 27
                    },
                    "indices": 29,
                    "material": 7
                }
            ]
        },
        {
            "name": "mesh1055_mesh",
            "primitives": [
                {
                    "attributes": {
                        "NORMAL": 31,
                        "POSITION": 30
                    },
                    "indices": 32,
                    "material": 7
                }
            ]
        },
        {
            "name": "mesh1056_mesh",
            "primitives": [
                {
                    "attributes": {
                        "NORMAL": 34,
                        "POSITION": 33
                    },
                    "indices": 35,
                    "material": 7
                }
            ]
        },
        {
            "name": "mesh1057_mesh",
            "primitives": [
                {
                    "attributes": {
                        "NORMAL": 37,
                        "POSITION": 36
                    },
                    "indices": 38,
                    "material": 7
                }
            ]
        },
        {
            "name": "mesh1058_mesh",
            "primitives": [
                {
                    "attributes": {
                        "NORMAL": 40,
                        "POSITION": 39
                    },
                    "indices": 41,
                    "material": 7
                }
            ]
        },
        {
            "name": "mesh1059_mesh",
            "primitives": [
                {
                    "attributes": {
                        "NORMAL": 43,
                        "POSITION": 42
                    },
                    "indices": 44,
                    "material": 7
                }
            ]
        },
        {
            "name": "mesh1060_mesh",
            "primitives": [
                {
                    "attributes": {
                        "NORMAL": 46,
                        "POSITION": 45
                    },
                    "indices": 47,
                    "material": 7
                }
            ]
        },
        {
            "name": "mesh1061_mesh",
            "primitives": [
                {
                    "attributes": {
                        "NORMAL": 49,
                        "POSITION": 48
                    },
                    "indices": 50,
                    "material": 7
                }
            ]
        },
        {
            "name": "mesh1062_mesh",
            "primitives": [
                {
                    "attributes": {
                        "NORMAL": 52,
                        "POSITION": 51
                    },
                    "indices": 53,
                    "material": 7
                }
            ]
        },
        {
            "name": "mesh1063_mesh",
            "primitives": [
                {
                    "attributes": {
                        "NORMAL": 55,
                        "POSITION": 54
                    },
                    "indices": 56,
                    "material": 7
                }
            ]
        },
        {
            "name": "mesh1064_mesh",
            "primitives": [
                {
                    "attributes": {
                        "NORMAL": 58,
                        "POSITION": 57
                    },
                    "indices": 59,
                    "material": 7
                }
            ]
        },
        {
            "name": "mesh1065_mesh",
            "primitives": [
                {
                    "attributes": {
                        "NORMAL": 61,
                        "POSITION": 60
                    },
                    "indices": 62,
                    "material": 7
                }
            ]
        },
        {
            "name": "mesh1066_mesh",
            "primitives": [
                {
                    "attributes": {
                        "NORMAL": 64,
                        "POSITION": 63
                    },
                    "indices": 65,
                    "material": 7
                }
            ]
        },
        {
            "name": "mesh1067_mesh",
            "primitives": [
                {
                    "attributes": {
                        "NORMAL": 67,
                        "POSITION": 66
                    },
                    "indices": 68,
                    "material": 7
                }
            ]
        },
        {
            "name": "mesh1068_mesh",
            "primitives": [
                {
                    "attributes": {
                        "NORMAL": 70,
                        "POSITION": 69
                    },
                    "indices": 71,
                    "material": 7
                }
            ]
        },
        {
            "name": "mesh1069_mesh",
            "primitives": [
                {
                    "attributes": {
                        "NORMAL": 73,
                        "POSITION": 72
                    },
                    "indices": 74,
                    "material": 7
                }
            ]
        },
        {
            "name": "mesh1070_mesh",
            "primitives": [
                {
                    "attributes": {
                        "NORMAL": 76,
                        "POSITION": 75
                    },
                    "indices": 77,
                    "material": 7
                }
            ]
        },
        {
            "name": "mesh1071_mesh",
            "primitives": [
                {
                    "attributes": {
                        "NORMAL": 79,
                        "POSITION": 78
                    },
                    "indices": 80,
                    "material": 7
                }
            ]
        },
        {
            "name": "mesh1072_mesh",
            "primitives": [
                {
                    "attributes": {
                        "NORMAL": 82,
                        "POSITION": 81
                    },
                    "indices": 83,
                    "material": 7
                }
            ]
        },
        {
            "name": "mesh1073_mesh",
            "primitives": [
                {
                    "attributes": {
                        "NORMAL": 85,
                        "POSITION": 84
                    },
                    "indices": 86,
                    "material": 7
                }
            ]
        },
        {
            "name": "mesh1074_mesh",
            "primitives": [
                {
                    "attributes": {
                        "NORMAL": 88,
                        "POSITION": 87
                    },
                    "indices": 89,
                    "material": 7
                }
            ]
        },
        {
            "name": "mesh1075_mesh",
            "primitives": [
                {
                    "attributes": {
                        "NORMAL": 91,
                        "POSITION": 90
                    },
                    "indices": 92,
                    "material": 7
                }
            ]
        },
        {
            "name": "mesh1076_mesh",
            "primitives": [
                {
                    "attributes": {
                        "NORMAL": 94,
                        "POSITION": 93
                    },
                    "indices": 95,
                    "material": 7
                }
            ]
        },
        {
            "name": "mesh1077_mesh",
            "primitives": [
                {
                    "attributes": {
                        "NORMAL": 97,
                        "POSITION": 96
                    },
                    "indices": 98,
                    "material": 7
                }
            ]
        },
        {
            "name": "mesh1078_mesh",
            "primitives": [
                {
                    "attributes": {
                        "NORMAL": 100,
                        "POSITION": 99
                    },
                    "indices": 101,
                    "material": 7
                }
            ]
        },
        {
            "name": "mesh1079_mesh",
            "primitives": [
                {
                    "attributes": {
                        "NORMAL": 103,
                        "POSITION": 102
                    },
                    "indices": 104,
                    "material": 7
                }
            ]
        },
        {
            "name": "mesh1080_mesh",
            "primitives": [
                {
                    "attributes": {
                        "NORMAL": 106,
                        "POSITION": 105
                    },
                    "indices": 107,
                    "material": 7
                }
            ]
        },
        {
            "name": "mesh1081_mesh",
            "primitives": [
                {
                    "attributes": {
                        "NORMAL": 109,
                        "POSITION": 108
                    },
                    "indices": 110,
                    "material": 7
                }
            ]
        },
        {
            "name": "mesh1082_mesh",
            "primitives": [
                {
                    "attributes": {
                        "NORMAL": 112,
                        "POSITION": 111
                    },
                    "indices": 113,
                    "material": 7
                }
            ]
        },
        {
            "name": "mesh1083_mesh",
            "primitives": [
                {
                    "attributes": {
                        "NORMAL": 115,
                        "POSITION": 114
                    },
                    "indices": 116,
                    "material": 7
                }
            ]
        },
        {
            "name": "mesh1084_mesh",
            "primitives": [
                {
                    "attributes": {
                        "NORMAL": 118,
                        "POSITION": 117
                    },
                    "indices": 119,
                    "material": 7
                }
            ]
        },
        {
            "name": "mesh1085_mesh",
            "primitives": [
                {
                    "attributes": {
                        "NORMAL": 121,
                        "POSITION": 120
                    },
                    "indices": 122,
                    "material": 7
                }
            ]
        },
        {
            "name": "mesh1086_mesh",
            "primitives": [
                {
                    "attributes": {
                        "NORMAL": 124,
                        "POSITION": 123
                    },
                    "indices": 125,
                    "material": 7
                }
            ]
        }
    ],
    "nodes": [
        {
            "mesh": 0,
            "name": "mesh1045"
        },
        {
            "mesh": 1,
            "name": "mesh1046"
        },
        {
            "mesh": 2,
            "name": "mesh1047"
        },
        {
            "mesh": 3,
            "name": "mesh1048"
        },
        {
            "mesh": 4,
            "name": "mesh1049"
        },
        {
            "mesh": 5,
            "name": "mesh1050"
        },
        {
            "mesh": 6,
            "name": "mesh1051"
        },
        {
            "mesh": 7,
            "name": "mesh1052"
        },
        {
            "mesh": 8,
            "name": "mesh1053"
        },
        {
            "mesh": 9,
            "name": "mesh1054"
        },
        {
            "mesh": 10,
            "name": "mesh1055"
        },
        {
            "mesh": 11,
            "name": "mesh1056"
        },
        {
            "mesh": 12,
            "name": "mesh1057"
        },
        {
            "mesh": 13,
            "name": "mesh1058"
        },
        {
            "mesh": 14,
            "name": "mesh1059"
        },
        {
            "mesh": 15,
            "name": "mesh1060"
        },
        {
            "mesh": 16,
            "name": "mesh1061"
        },
        {
            "mesh": 17,
            "name": "mesh1062"
        },
        {
            "mesh": 18,
            "name": "mesh1063"
        },
        {
            "mesh": 19,
            "name": "mesh1064"
        },
        {
            "mesh": 20,
            "name": "mesh1065"
        },
        {
            "mesh": 21,
            "name": "mesh1066"
        },
        {
            "mesh": 22,
            "name": "mesh1067"
        },
        {
            "mesh": 23,
            "name": "mesh1068"
        },
        {
            "mesh": 24,
            "name": "mesh1069"
        },
        {
            "mesh": 25,
            "name": "mesh1070"
        },
        {
            "mesh": 26,
            "name": "mesh1071"
        },
        {
            "mesh": 27,
            "name": "mesh1072"
        },
        {
            "mesh": 28,
            "name": "mesh1073"
        },
        {
            "mesh": 29,
            "name": "mesh1074"
        },
        {
            "mesh": 30,
            "name": "mesh1075"
        },
        {
            "mesh": 31,
            "name": "mesh1076"
        },
        {
            "mesh": 32,
            "name": "mesh1077"
        },
        {
            "mesh": 33,
            "name": "mesh1078"
        },
        {
            "mesh": 34,
            "name": "mesh1079"
        },
        {
            "mesh": 35,
            "name": "mesh1080"
        },
        {
            "mesh": 36,
            "name": "mesh1081"
        },
        {
            "mesh": 37,
            "name": "mesh1082"
        },
        {
            "mesh": 38,
            "name": "mesh1083"
        },
        {
            "mesh": 39,
            "name": "mesh1084"
        },
        {
            "mesh": 40,
            "name": "mesh1085"
        },
        {
            "mesh": 41,
            "name": "mesh1086"
        }
    ],
    "scene": 0,
    "scenes": [
        {
            "name": "Root",
            "nodes": [
                0,
                1,
                2,
                3,
                4,
                5,
                6,
                7,
                8,
                9,
                10,
                11,
                12,
                13,
                14,
                15,
                16,
                17,
                18,
                19,
                20,
                21,
                22,
                23,
                24,
                25,
                26,
                27,
                28,
                29,
                30,
                31,
                32,
                33,
                34,
                35,
                36,
                37,
                38,
                39,
                40,
                41
            ]
        }
    ]
}