{
    "accessors": [
        {
            "bufferView": 0,
            "componentType": 5126,
            "count": 290,
            "max": [
                -0.01688557118177414,
                0.15600000321865082,
                0.013849999755620956
            ],
            "min": [
                -0.02208557166159153,
                0.15000000596046448,
                0.00865000020712614
            ],
            "name": "mesh850_coord_accessor",
            "type": "VEC3"
        },
        {
            "bufferView": 1,
            "componentType": 5126,
            "count": 290,
            "max": [
                1.0,
                -0.0,
                1.0
            ],
            "min": [
                -1.0,
                -0.0,
                -1.0
            ],
            "name": "mesh850_norm_accessor",
            "type": "VEC3"
        },
        {
            "bufferView": 2,
            "componentType": 5125,
            "count": 870,
            "max": [
                289
            ],
            "min": [
                0
            ],
            "name": "mesh850_idx_accessor",
            "type": "SCALAR"
        },
        {
            "bufferView": 3,
            "componentType": 5126,
            "count": 1197,
            "max": [
                0.028300000354647636,
                0.15600000321865082,
                0.028300000354647636
            ],
            "min": [
                -0.028300000354647636,
                0.15600000321865082,
                -0.028300000354647636
            ],
            "name": "mesh851_coord_accessor",
            "type": "VEC3"
        },
        {
            "bufferView": 4,
            "componentType": 5126,
            "count": 1197,
            "max": [
                0.0,
                1.0,
                0.0
            ],
            "min": [
                0.0,
                1.0,
                0.0
            ],
            "name": "mesh851_norm_accessor",
            "type": "VEC3"
        },
        {
            "bufferView": 5,
            "componentType": 5125,
            "count": 3684,
            "max": [
                1196
            ],
            "min": [
                0
            ],
            "name": "mesh851_idx_accessor",
            "type": "SCALAR"
        },
        {
            "bufferView": 6,
            "componentType": 5126,
            "count": 288,
            "max": [
                -0.01688557118177414,
                0.15600000321865082,
                -0.00865000020712614
            ],
            "min": [
                -0.02208557166159153,
                0.15000000596046448,
                -0.013849999755620956
            ],
            "name": "mesh852_coord_accessor",
            "type": "VEC3"
        },
        {
            "bufferView": 7,
            "componentType": 5126,
            "count": 288,
            "max": [
                1.0,
                -0.0,
                1.0
            ],
            "min": [
                -1.0,
                -0.0,
                -1.0
            ],
            "name": "mesh852_norm_accessor",
            "type": "VEC3"
        },
        {
            "bufferView": 8,
            "componentType": 5125,
            "count": 864,
            "max": [
                287
            ],
            "min": [
                0
            ],
            "name": "mesh852_idx_accessor",
            "type": "SCALAR"
        },
        {
            "bufferView": 9,
            "componentType": 5126,
            "count": 288,
            "max": [
                0.0026000000070780516,
                0.15600000321865082,
                -0.019899999722838402
            ],
            "min": [
                -0.0026000000070780516,
                0.15000000596046448,
                -0.025100000202655792
            ],
            "name": "mesh853_coord_accessor",
            "type": "VEC3"
        },
        {
            "bufferView": 10,
            "componentType": 5126,
            "count": 288,
            "max": [
                1.0,
                -0.0,
                1.0
            ],
            "min": [
                -1.0,
                -0.0,
                -1.0
            ],
            "name": "mesh853_norm_accessor",
            "type": "VEC3"
        },
        {
            "bufferView": 11,
            "componentType": 5125,
            "count": 864,
            "max": [
                287
            ],
            "min": [
                0
            ],
            "name": "mesh853_idx_accessor",
            "type": "SCALAR"
        },
        {
            "bufferView": 12,
            "componentType": 5126,
            "count": 288,
            "max": [
                0.02208557166159153,
                0.15600000321865082,
                -0.00865000020712614
            ],
            "min": [
                0.01688557118177414,
                0.15000000596046448,
                -0.013849999755620956
            ],
            "name": "mesh854_coord_accessor",
            "type": "VEC3"
        },
        {
            "bufferView": 13,
            "componentType": 5126,
            "count": 288,
            "max": [
                1.0,
                -0.0,
                1.0
            ],
            "min": [
                -1.0,
                -0.0,
                -1.0
            ],
            "name": "mesh854_norm_accessor",
            "type": "VEC3"
        },
        {
            "bufferView": 14,
            "componentType": 5125,
            "count": 864,
            "max": [
                287
            ],
            "min": [
                0
            ],
            "name": "mesh854_idx_accessor",
            "type": "SCALAR"
        },
        {
            "bufferView": 15,
            "componentType": 5126,
            "count": 290,
            "max": [
                0.02208557166159153,
                0.15600000321865082,
                0.013849999755620956
            ],
            "min": [
                0.01688557118177414,
                0.15000000596046448,
                0.00865000020712614
            ],
            "name": "mesh855_coord_accessor",
            "type": "VEC3"
        },
        {
            "bufferView": 16,
            "componentType": 5126,
            "count": 290,
            "max": [
                1.0,
                0.0,
                1.0
            ],
            "min": [
                -1.0,
                0.0,
                -1.0
            ],
            "name": "mesh855_norm_accessor",
            "type": "VEC3"
        },
        {
            "bufferView": 17,
            "componentType": 5125,
            "count": 870,
            "max": [
                289
            ],
            "min": [
                0
            ],
            "name": "mesh855_idx_accessor",
            "type": "SCALAR"
        },
        {
            "bufferView": 18,
            "componentType": 5126,
            "count": 288,
            "max": [
                0.0026000000070780516,
                0.15600000321865082,
                0.025100000202655792
            ],
            "min": [
                -0.0026000000070780516,
                0.15000000596046448,
                0.019899999722838402
            ],
            "name": "mesh856_coord_accessor",
            "type": "VEC3"
        },
        {
            "bufferView": 19,
            "componentType": 5126,
            "count": 288,
            "max": [
                1.0,
                0.0,
                1.0
            ],
            "min": [
                -1.0,
                0.0,
                -1.0
            ],
            "name": "mesh856_norm_accessor",
            "type": "VEC3"
        },
        {
            "bufferView": 20,
            "componentType": 5125,
            "count": 864,
            "max": [
                287
            ],
            "min": [
                0
            ],
            "name": "mesh856_idx_accessor",
            "type": "SCALAR"
        },
        {
            "bufferView": 21,
            "componentType": 5126,
            "count": 296,
            "max": [
                0.014999999664723873,
                0.16990000009536743,
                0.014999999664723873
            ],
            "min": [
                -0.014999999664723873,
                0.15600000321865082,
                -0.014999999664723873
            ],
            "name": "mesh857_coord_accessor",
            "type": "VEC3"
        },
        {
            "bufferView": 22,
            "componentType": 5126,
            "count": 296,
            "max": [
                1.0,
                0.0,
                1.0
            ],
            "min": [
                -1.0,
                0.0,
                -1.0
            ],
            "name": "mesh857_norm_accessor",
            "type": "VEC3"
        },
        {
            "bufferView": 23,
            "componentType": 5125,
            "count": 888,
            "max": [
                295
            ],
            "min": [
                0
            ],
            "name": "mesh857_idx_accessor",
            "type": "SCALAR"
        },
        {
            "bufferView": 24,
            "componentType": 5126,
            "count": 306,
            "max": [
                0.0284000001847744,
                0.15600000321865082,
                0.0284000001847744
            ],
            "min": [
                -0.0284000001847744,
                0.1559000015258789,
                -0.0284000001847744
            ],
            "name": "mesh858_coord_accessor",
            "type": "VEC3"
        },
        {
            "bufferView": 25,
            "componentType": 5126,
            "count": 306,
            "max": [
                0.7071067690849304,
                0.7071067690849304,
                0.7071067690849304
            ],
            "min": [
                -0.7071067690849304,
                0.7071067690849304,
                -0.7071067690849304
            ],
            "name": "mesh858_norm_accessor",
            "type": "VEC3"
        },
        {
            "bufferView": 26,
            "componentType": 5125,
            "count": 918,
            "max": [
                305
            ],
            "min": [
                0
            ],
            "name": "mesh858_idx_accessor",
            "type": "SCALAR"
        },
        {
            "bufferView": 27,
            "componentType": 5126,
            "count": 288,
            "max": [
                0.0284000001847744,
                0.1559000015258789,
                0.0284000001847744
            ],
            "min": [
                -0.0284000001847744,
                0.1500999927520752,
                -0.0284000001847744
            ],
            "name": "mesh859_coord_accessor",
            "type": "VEC3"
        },
        {
            "bufferView": 28,
            "componentType": 5126,
            "count": 288,
            "max": [
                1.0,
                0.0,
                1.0
            ],
            "min": [
                -1.0,
                0.0,
                -1.0
            ],
            "name": "mesh859_norm_accessor",
            "type": "VEC3"
        },
        {
            "bufferView": 29,
            "componentType": 5125,
            "count": 864,
            "max": [
                287
            ],
            "min": [
                0
            ],
            "name": "mesh859_idx_accessor",
            "type": "SCALAR"
        },
        {
            "bufferView": 30,
            "componentType": 5126,
            "count": 310,
            "max": [
                0.0284000001847744,
                0.1500999927520752,
                0.0284000001847744
            ],
            "min": [
                -0.0284000001847744,
                0.15000000596046448,
                -0.0284000001847744
            ],
            "name": "mesh860_coord_accessor",
            "type": "VEC3"
        },
        {
            "bufferView": 31,
            "componentType": 5126,
            "count": 310,
            "max": [
                0.7071067690849304,
                -0.7071067690849304,
                0.7071067690849304
            ],
            "min": [
                -0.7071067690849304,
                -0.7071067690849304,
                -0.7071067690849304
            ],
            "name": "mesh860_norm_accessor",
            "type": "VEC3"
        },
        {
            "bufferView": 32,
            "componentType": 5125,
            "count": 930,
            "max": [
                309
            ],
            "min": [
                0
            ],
            "name": "mesh860_idx_accessor",
            "type": "SCALAR"
        },
        {
            "bufferView": 33,
            "componentType": 5126,
            "count": 288,
            "max": [
                0.014999999664723873,
                0.17000000178813934,
                0.014999999664723873
            ],
            "min": [
                -0.014999999664723873,
                0.16990000009536743,
                -0.014999999664723873
            ],
            "name": "mesh861_coord_accessor",
            "type": "VEC3"
        },
        {
            "bufferView": 34,
            "componentType": 5126,
            "count": 288,
            "max": [
                0.7071067690849304,
                0.7071067690849304,
                0.7071067690849304
            ],
            "min": [
                -0.7071067690849304,
                0.7071067690849304,
                -0.7071067690849304
            ],
            "name": "mesh861_norm_accessor",
            "type": "VEC3"
        },
        {
            "bufferView": 35,
            "componentType": 5125,
            "count": 864,
            "max": [
                287
            ],
            "min": [
                0
            ],
            "name": "mesh861_idx_accessor",
            "type": "SCALAR"
        },
        {
            "bufferView": 36,
            "componentType": 5126,
            "count": 1195,
            "max": [
                0.028300000354647636,
                0.15000000596046448,
                0.028300000354647636
            ],
            "min": [
                -0.028300000354647636,
                0.15000000596046448,
                -0.028300000354647636
            ],
            "name": "mesh862_coord_accessor",
            "type": "VEC3"
        },
        {
            "bufferView": 37,
            "componentType": 5126,
            "count": 1195,
            "max": [
                -0.0,
                -1.0,
                -0.0
            ],
            "min": [
                -0.0,
                -1.0,
                -0.0
            ],
            "name": "mesh862_norm_accessor",
            "type": "VEC3"
        },
        {
            "bufferView": 38,
            "componentType": 5125,
            "count": 3690,
            "max": [
                1194
            ],
            "min": [
                0
            ],
            "name": "mesh862_idx_accessor",
            "type": "SCALAR"
        },
        {
            "bufferView": 39,
            "componentType": 5126,
            "count": 276,
            "max": [
                0.01489999983459711,
                0.17000000178813934,
                0.01489999983459711
            ],
            "min": [
                -0.01489999983459711,
                0.17000000178813934,
                -0.01489999983459711
            ],
            "name": "mesh863_coord_accessor",
            "type": "VEC3"
        },
        {
            "bufferView": 40,
            "componentType": 5126,
            "count": 276,
            "max": [
                0.0,
                1.0,
                0.0
            ],
            "min": [
                0.0,
                1.0,
                0.0
            ],
            "name": "mesh863_norm_accessor",
            "type": "VEC3"
        },
        {
            "bufferView": 41,
            "componentType": 5125,
            "count": 828,
            "max": [
                275
            ],
            "min": [
                0
            ],
            "name": "mesh863_idx_accessor",
            "type": "SCALAR"
        },
        {
            "bufferView": 42,
            "componentType": 5126,
            "count": 4,
            "max": [
                0.0026000000070780516,
                0.17000000178813934,
                0.010065712034702301
            ],
            "min": [
                -0.0026000000070780516,
                0.15000000596046448,
                0.010065712034702301
            ],
            "name": "mesh864_coord_accessor",
            "type": "VEC3"
        },
        {
            "bufferView": 43,
            "componentType": 5126,
            "count": 4,
            "max": [
                0.0,
                0.0,
                -1.0
            ],
            "min": [
                0.0,
                0.0,
                -1.0
            ],
            "name": "mesh864_norm_accessor",
            "type": "VEC3"
        },
        {
            "bufferView": 44,
            "componentType": 5125,
            "count": 6,
            "max": [
                3
            ],
            "min": [
                0
            ],
            "name": "mesh864_idx_accessor",
            "type": "SCALAR"
        },
        {
            "bufferView": 45,
            "componentType": 5126,
            "count": 4,
            "max": [
                -0.0026000000070780516,
                0.17000000178813934,
                0.010065712034702301
            ],
            "min": [
                -0.0026000000070780516,
                0.15000000596046448,
                0.0075657120905816555
            ],
            "name": "mesh865_coord_accessor",
            "type": "VEC3"
        },
        {
            "bufferView": 46,
            "componentType": 5126,
            "count": 4,
            "max": [
                1.0,
                -0.0,
                -0.0
            ],
            "min": [
                1.0,
                -0.0,
                -0.0
            ],
            "name": "mesh865_norm_accessor",
            "type": "VEC3"
        },
        {
            "bufferView": 47,
            "componentType": 5125,
            "count": 6,
            "max": [
                3
            ],
            "min": [
                0
            ],
            "name": "mesh865_idx_accessor",
            "type": "SCALAR"
        },
        {
            "bufferView": 48,
            "componentType": 5126,
            "count": 266,
            "max": [
                0.007998449727892876,
                0.17000000178813934,
                0.0075657120905816555
            ],
            "min": [
                -0.007998449727892876,
                0.15000000596046448,
                -0.00799810141324997
            ],
            "name": "mesh866_coord_accessor",
            "type": "VEC3"
        },
        {
            "bufferView": 49,
            "componentType": 5126,
            "count": 266,
            "max": [
                0.9998062252998352,
                -0.0,
                0.9997626543045044
            ],
            "min": [
                -0.9998062252998352,
                -0.0,
                -0.945713996887207
            ],
            "name": "mesh866_norm_accessor",
            "type": "VEC3"
        },
        {
            "bufferView": 50,
            "componentType": 5125,
            "count": 792,
            "max": [
                265
            ],
            "min": [
                0
            ],
            "name": "mesh866_idx_accessor",
            "type": "SCALAR"
        },
        {
            "bufferView": 51,
            "componentType": 5126,
            "count": 4,
            "max": [
                0.0026000000070780516,
                0.17000000178813934,
                0.010065712034702301
            ],
            "min": [
                0.0026000000070780516,
                0.15000000596046448,
                0.0075657120905816555
            ],
            "name": "mesh867_coord_accessor",
            "type": "VEC3"
        },
        {
            "bufferView": 52,
            "componentType": 5126,
            "count": 4,
            "max": [
                -1.0,
                0.0,
                0.0
            ],
            "min": [
                -1.0,
                0.0,
                0.0
            ],
            "name": "mesh867_norm_accessor",
            "type": "VEC3"
        },
        {
            "bufferView": 53,
            "componentType": 5125,
            "count": 6,
            "max": [
                3
            ],
            "min": [
                0
            ],
            "name": "mesh867_idx_accessor",
            "type": "SCALAR"
        }
    ],
    "asset": {
        "generator": "ONSHAPE BY PTC INC, 1.217",
        "version": "2.0"
    },
    "bufferViews": [
        {
            "buffer": 0,
            "byteLength": 3480,
            "name": "mesh850_coord_bufferView",
            "target": 34962
        },
        {
            "buffer": 0,
            "byteLength": 3480,
            "byteOffset": 3480,
            "name": "mesh850_norm_bufferView",
            "target": 34962
        },
        {
            "buffer": 0,
            "byteLength": 3480,
            "byteOffset": 6960,
            "name": "mesh850_idx_bufferView",
            "target": 34963
        },
        {
            "buffer": 0,
            "byteLength": 14364,
            "byteOffset": 10440,
            "name": "mesh851_coord_bufferView",
            "target": 34962
        },
        {
            "buffer": 0,
            "byteLength": 14364,
            "byteOffset": 24804,
            "name": "mesh851_norm_bufferView",
            "target": 34962
        },
        {
            "buffer": 0,
            "byteLength": 14736,
            "byteOffset": 39168,
            "name": "mesh851_idx_bufferView",
            "target": 34963
        },
        {
            "buffer": 0,
            "byteLength": 3456,
            "byteOffset": 53904,
            "name": "mesh852_coord_bufferView",
            "target": 34962
        },
        {
            "buffer": 0,
            "byteLength": 3456,
            "byteOffset": 57360,
            "name": "mesh852_norm_bufferView",
            "target": 34962
        },
        {
            "buffer": 0,
            "byteLength": 3456,
            "byteOffset": 60816,
            "name": "mesh852_idx_bufferView",
            "target": 34963
        },
        {
            "buffer": 0,
            "byteLength": 3456,
            "byteOffset": 64272,
            "name": "mesh853_coord_bufferView",
            "target": 34962
        },
        {
            "buffer": 0,
            "byteLength": 3456,
            "byteOffset": 67728,
            "name": "mesh853_norm_bufferView",
            "target": 34962
        },
        {
            "buffer": 0,
            "byteLength": 3456,
            "byteOffset": 71184,
            "name": "mesh853_idx_bufferView",
            "target": 34963
        },
        {
            "buffer": 0,
            "byteLength": 3456,
            "byteOffset": 74640,
            "name": "mesh854_coord_bufferView",
            "target": 34962
        },
        {
            "buffer": 0,
            "byteLength": 3456,
            "byteOffset": 78096,
            "name": "mesh854_norm_bufferView",
            "target": 34962
        },
        {
            "buffer": 0,
            "byteLength": 3456,
            "byteOffset": 81552,
            "name": "mesh854_idx_bufferView",
            "target": 34963
        },
        {
            "buffer": 0,
            "byteLength": 3480,
            "byteOffset": 85008,
            "name": "mesh855_coord_bufferView",
            "target": 34962
        },
        {
            "buffer": 0,
            "byteLength": 3480,
            "byteOffset": 88488,
            "name": "mesh855_norm_bufferView",
            "target": 34962
        },
        {
            "buffer": 0,
            "byteLength": 3480,
            "byteOffset": 91968,
            "name": "mesh855_idx_bufferView",
            "target": 34963
        },
        {
            "buffer": 0,
            "byteLength": 3456,
            "byteOffset": 95448,
            "name": "mesh856_coord_bufferView",
            "target": 34962
        },
        {
            "buffer": 0,
            "byteLength": 3456,
            "byteOffset": 98904,
            "name": "mesh856_norm_bufferView",
            "target": 34962
        },
        {
            "buffer": 0,
            "byteLength": 3456,
            "byteOffset": 102360,
            "name": "mesh856_idx_bufferView",
            "target": 34963
        },
        {
            "buffer": 0,
            "byteLength": 3552,
            "byteOffset": 105816,
            "name": "mesh857_coord_bufferView",
            "target": 34962
        },
        {
            "buffer": 0,
            "byteLength": 3552,
            "byteOffset": 109368,
            "name": "mesh857_norm_bufferView",
            "target": 34962
        },
        {
            "buffer": 0,
            "byteLength": 3552,
            "byteOffset": 112920,
            "name": "mesh857_idx_bufferView",
            "target": 34963
        },
        {
            "buffer": 0,
            "byteLength": 3672,
            "byteOffset": 116472,
            "name": "mesh858_coord_bufferView",
            "target": 34962
        },
        {
            "buffer": 0,
            "byteLength": 3672,
            "byteOffset": 120144,
            "name": "mesh858_norm_bufferView",
            "target": 34962
        },
        {
            "buffer": 0,
            "byteLength": 3672,
            "byteOffset": 123816,
            "name": "mesh858_idx_bufferView",
            "target": 34963
        },
        {
            "buffer": 0,
            "byteLength": 3456,
            "byteOffset": 127488,
            "name": "mesh859_coord_bufferView",
            "target": 34962
        },
        {
            "buffer": 0,
            "byteLength": 3456,
            "byteOffset": 130944,
            "name": "mesh859_norm_bufferView",
            "target": 34962
        },
        {
            "buffer": 0,
            "byteLength": 3456,
            "byteOffset": 134400,
            "name": "mesh859_idx_bufferView",
            "target": 34963
        },
        {
            "buffer": 0,
            "byteLength": 3720,
            "byteOffset": 137856,
            "name": "mesh860_coord_bufferView",
            "target": 34962
        },
        {
            "buffer": 0,
            "byteLength": 3720,
            "byteOffset": 141576,
            "name": "mesh860_norm_bufferView",
            "target": 34962
        },
        {
            "buffer": 0,
            "byteLength": 3720,
            "byteOffset": 145296,
            "name": "mesh860_idx_bufferView",
            "target": 34963
        },
        {
            "buffer": 0,
            "byteLength": 3456,
            "byteOffset": 149016,
            "name": "mesh861_coord_bufferView",
            "target": 34962
        },
        {
            "buffer": 0,
            "byteLength": 3456,
            "byteOffset": 152472,
            "name": "mesh861_norm_bufferView",
            "target": 34962
        },
        {
            "buffer": 0,
            "byteLength": 3456,
            "byteOffset": 155928,
            "name": "mesh861_idx_bufferView",
            "target": 34963
        },
        {
            "buffer": 0,
            "byteLength": 14340,
            "byteOffset": 159384,
            "name": "mesh862_coord_bufferView",
            "target": 34962
        },
        {
            "buffer": 0,
            "byteLength": 14340,
            "byteOffset": 173724,
            "name": "mesh862_norm_bufferView",
            "target": 34962
        },
        {
            "buffer": 0,
            "byteLength": 14760,
            "byteOffset": 188064,
            "name": "mesh862_idx_bufferView",
            "target": 34963
        },
        {
            "buffer": 0,
            "byteLength": 3312,
            "byteOffset": 202824,
            "name": "mesh863_coord_bufferView",
            "target": 34962
        },
        {
            "buffer": 0,
            "byteLength": 3312,
            "byteOffset": 206136,
            "name": "mesh863_norm_bufferView",
            "target": 34962
        },
        {
            "buffer": 0,
            "byteLength": 3312,
            "byteOffset": 209448,
            "name": "mesh863_idx_bufferView",
            "target": 34963
        },
        {
            "buffer": 0,
            "byteLength": 48,
            "byteOffset": 212760,
            "name": "mesh864_coord_bufferView",
            "target": 34962
        },
        {
            "buffer": 0,
            "byteLength": 48,
            "byteOffset": 212808,
            "name": "mesh864_norm_bufferView",
            "target": 34962
        },
        {
            "buffer": 0,
            "byteLength": 24,
            "byteOffset": 212856,
            "name": "mesh864_idx_bufferView",
            "target": 34963
        },
        {
            "buffer": 0,
            "byteLength": 48,
            "byteOffset": 212880,
            "name": "mesh865_coord_bufferView",
            "target": 34962
        },
        {
            "buffer": 0,
            "byteLength": 48,
            "byteOffset": 212928,
            "name": "mesh865_norm_bufferView",
            "target": 34962
        },
        {
            "buffer": 0,
            "byteLength": 24,
            "byteOffset": 212976,
            "name": "mesh865_idx_bufferView",
            "target": 34963
        },
        {
            "buffer": 0,
            "byteLength": 3192,
            "byteOffset": 213000,
            "name": "mesh866_coord_bufferView",
            "target": 34962
        },
        {
            "buffer": 0,
            "byteLength": 3192,
            "byteOffset": 216192,
            "name": "mesh866_norm_bufferView",
            "target": 34962
        },
        {
            "buffer": 0,
            "byteLength": 3168,
            "byteOffset": 219384,
            "name": "mesh866_idx_bufferView",
            "target": 34963
        },
        {
            "buffer": 0,
            "byteLength": 48,
            "byteOffset": 222552,
            "name": "mesh867_coord_bufferView",
            "target": 34962
        },
        {
            "buffer": 0,
            "byteLength": 48,
            "byteOffset": 222600,
            "name": "mesh867_norm_bufferView",
            "target": 34962
        },
        {
            "buffer": 0,
            "byteLength": 24,
            "byteOffset": 222648,
            "name": "mesh867_idx_bufferView",
            "target": 34963
        }
    ],
    "buffers": [
        {
            "byteLength": 222672,
            "name": "Total_buffer",
            "uri": "data:application/octet-stream;base64,"
        }
    ],
    "extensionsUsed": [
        "PTC_onshape_metadata"
    ],
    "materials": [
        {
            "doubleSided": true,
            "name": "0.980392_0.713725_0.003922_0.000000_0.000000",
            "pbrMetallicRoughness": {
                "baseColorFactor": [
                    0.9803921580314636,
                    0.7137255072593689,
                    0.003921568859368563,
                    1.0
                ],
                "metallicFactor": 0.0
            }
        },
        {
            "doubleSided": true,
            "name": "0.231373_0.380392_0.705882_0.000000_0.000000",
            "pbrMetallicRoughness": {
                "baseColorFactor": [
                    0.23137255012989044,
                    0.3803921639919281,
                    0.7058823704719543,
                    1.0
                ],
                "metallicFactor": 0.0
            }
        },
        {
            "doubleSided": true,
            "name": "0.768627_0.886275_0.952941_0.000000_0.000000",
            "pbrMetallicRoughness": {
                "baseColorFactor": [
                    0.7686274647712708,
                    0.886274516582489,
                    0.9529411792755127,
                    1.0
                ],
                "metallicFactor": 0.0
            }
        },
        {
            "doubleSided": true,
            "name": "0.498039_0.498039_0.498039_0.000000_0.000000",
            "pbrMetallicRoughness": {
                "baseColorFactor": [
                    0.49803921580314636,
                    0.49803921580314636,
                    0.49803921580314636,
                    1.0
                ],
                "metallicFactor": 0.0
            }
        },
        {
            "doubleSided": true,
            "name": "0.615686_0.811765_0.929412_0.000000_0.000000",
            "pbrMetallicRoughness": {
                "baseColorFactor": [
                    0.615686297416687,
                    0.8117647171020508,
                    0.929411768913269,
                    1.0
                ],
                "metallicFactor": 0.0
            }
        },
        {
            "doubleSided": true,
            "name": "0.647059_0.647059_0.647059_0.000000_0.000000",
            "pbrMetallicRoughness": {
                "baseColorFactor": [
                    0.6470588445663452,
                    0.6470588445663452,
                    0.6470588445663452,
                    1.0
                ],
                "metallicFactor": 0.0
            }
        },
        {
            "doubleSided": true,
            "name": "0.972549_0.529412_0.003922_0.000000_0.000000",
            "pbrMetallicRoughness": {
                "baseColorFactor": [
                    0.9725490212440491,
                    0.529411792755127,
                    0.003921568859368563,
                    1.0
                ],
                "metallicFactor": 0.0
            }
        },
        {
            "doubleSided": true,
            "name": "0.996078_0.996078_1.000000_0.000000_0.000000",
            "pbrMetallicRoughness": {
                "baseColorFactor": [
                    0.9960784316062927,
                    0.9960784316062927,
                    1.0,
                    1.0
                ],
                "metallicFactor": 0.0
            }
        },
        {
            "doubleSided": true,
            "name": "0.250980_0.250980_0.250980_0.000000_0.000000",
            "pbrMetallicRoughness": {
                "baseColorFactor": [
                    0.250980406999588,
                    0.250980406999588,
                    0.250980406999588,
                    1.0
                ],
                "metallicFactor": 0.0
            }
        },
        {
            "doubleSided": true,
            "name": "0.749020_0.749020_0.749020_0.000000_0.000000",
            "pbrMetallicRoughness": {
                "baseColorFactor": [
                    0.7490196228027344,
                    0.7490196228027344,
                    0.7490196228027344,
                    1.0
                ],
                "metallicFactor": 0.0
            }
        },
        {
            "doubleSided": true,
            "name": "0.039216_0.039216_0.039216_0.000000_0.000000",
            "pbrMetallicRoughness": {
                "baseColorFactor": [
                    0.03921568766236305,
                    0.03921568766236305,
                    0.03921568766236305,
                    1.0
                ],
                "metallicFactor": 0.0
            }
        }
    ],
    "meshes": [
        {
            "name": "mesh850_mesh",
            "primitives": [
                {
                    "attributes": {
                        "NORMAL": 1,
                        "POSITION": 0
                    },
                    "indices": 2,
                    "material": 5
                }
            ]
        },
        {
            "name": "mesh851_mesh",
            "primitives": [
                {
                    "attributes": {
                        "NORMAL": 4,
                        "POSITION": 3
                    },
                    "indices": 5,
                    "material": 5
                }
            ]
        },
        {
            "name": "mesh852_mesh",
            "primitives": [
                {
                    "attributes": {
                        "NORMAL": 7,
                        "POSITION": 6
                    },
                    "indices": 8,
                    "material": 5
                }
            ]
        },
        {
            "name": "mesh853_mesh",
            "primitives": [
                {
                    "attributes": {
                        "NORMAL": 10,
                        "POSITION": 9
                    },
                    "indices": 11,
                    "material": 5
                }
            ]
        },
        {
            "name": "mesh854_mesh",
            "primitives": [
                {
                    "attributes": {
                        "NORMAL": 13,
                        "POSITION": 12
                    },
                    "indices": 14,
                    "material": 5
                }
            ]
        },
        {
            "name": "mesh855_mesh",
            "primitives": [
                {
                    "attributes": {
                        "NORMAL": 16,
                        "POSITION": 15
                    },
                    "indices": 17,
                    "material": 5
                }
            ]
        },
        {
            "name": "mesh856_mesh",
            "primitives": [
                {
                    "attributes": {
                        "NORMAL": 19,
                        "POSITION": 18
                    },
                    "indices": 20,
                    "material": 5
                }
            ]
        },
        {
            "name": "mesh857_mesh",
            "primitives": [
                {
                    "attributes": {
                        "NORMAL": 22,
                        "POSITION": 21
                    },
                    "indices": 23,
                    "material": 5
                }
            ]
        },
        {
            "name": "mesh858_mesh",
            "primitives": [
                {
                    "attributes": {
                        "NORMAL": 25,
                        "POSITION": 24
                    },
                    "indices": 26,
                    "material": 5
                }
            ]
        },
        {
            "name": "mesh859_mesh",
            "primitives": [
                {
                    "attributes": {
                        "NORMAL": 28,
                        "POSITION": 27
                    },
                    "indices": 29,
                    "material": 5
                }
            ]
        },
        {
            "name": "mesh860_mesh",
            "primitives": [
                {
                    "attributes": {
                        "NORMAL": 31,
                        "POSITION": 30
                    },
                    "indices": 32,
                    "material": 5
                }
            ]
        },
        {
            "name": "mesh861_mesh",
            "primitives": [
                {
                    "attributes": {
                        "NORMAL": 34,
                        "POSITION": 33
                    },
                    "indices": 35,
                    "material": 5
                }
            ]
        },
        {
            "name": "mesh862_mesh",
            "primitives": [
                {
                    "attributes": {
                        "NORMAL": 37,
                        "POSITION": 36
                    },
                    "indices": 38,
                    "material": 5
                }
            ]
        },
        {
            "name": "mesh863_mesh",
            "primitives": [
                {
                    "attributes": {
                        "NORMAL": 40,
                        "POSITION": 39
                    },
                    "indices": 41,
                    "material": 5
                }
            ]
        },
        {
            "name": "mesh864_mesh",
            "primitives": [
                {
                    "attributes": {
                        "NORMAL": 43,
                        "POSITION": 42
                    },
                    "indices": 44,
                    "material": 5
                }
            ]
        },
        {
            "name": "mesh865_mesh",
            "primitives": [
                {
                    "attributes": {
                        "NORMAL": 46,
                        "POSITION": 45
                    },
                    "indices": 47,
                    "material": 5
                }
            ]
        },
        {
            "name": "mesh866_mesh",
            "primitives": [
                {
                    "attributes": {
                        "NORMAL": 49,
                        "POSITION": 48
                    },
                    "indices": 50,
                    "material": 5
                }
            ]
        },
        {
            "name": "mesh867_mesh",
            "primitives": [
                {
                    "attributes": {
                        "NORMAL": 52,
                        "POSITION": 51
                    },
                    "indices": 53,
                    "material": 5
                }
            ]
        }
    ],
    "nodes": [
        {
            "mesh": 0,
            "name": "mesh850"
        },
        {
            "mesh": 1,
            "name": "mesh851"
        },
        {
            "mesh": 2,
            "name": "mesh852"
        },
        {
            "mesh": 3,
            "name": "mesh853"
        },
        {
            "mesh": 4,
            "name": "mesh854"
        },
        {
            "mesh": 5,
            "name": "mesh855"
        },
        {
            "mesh": 6,
            "name": "mesh856"
        },
        {
            "mesh": 7,
            "name": "mesh857"
        },
        {
            "mesh": 8,
            "name": "mesh858"
        },
        {
            "mesh": 9,
            "name": "mesh859"
        },
        {
            "mesh": 10,
            "name": "mesh860"
        },
        {
            "mesh": 11,
            "name": "mesh861"
        },
        {
            "mesh": 12,
            "name": "mesh862"
        },
        {
            "mesh": 13,
            "name": "mesh863"
        },
        {
            "mesh": 14,
            "name": "mesh864"
        },
        {
            "mesh": 15,
            "name": "mesh865"
        },
        {
            "mesh": 16,
            "name": "mesh866"
        },
        {
            "mesh": 17,
            "name": "mesh867"
        }
    ],
    "scene": 0,
    "scenes": [
        {
            "name": "Root",
            "nodes": [
                0,
                1,
                2,
                3,
                4,
                5,
                6,
                7,
                8,
                9,
                10,
                11,
                12,
                13,
                14,
                15,
                16,
                17
            ]
        }
    ]
}